  0
SECTION
  2
HEADER
  9
$ACADVER
  1
AC1006
  9
$EXTMIN
 10
0.000000
 20
0.000000
 30
0.000000
  9
$EXTMAX
 10
692.000000
 20
597.000000
 30
0.000000
  0
ENDSEC
  0
SECTION
  2
ENTITIES
  0
POLYLINE
  8
0
 66
1
 70
1
  0
VERTEX
  8
0
 10
180.984398
 20
515.165194
 42
0.081250
  0
VERTEX
  8
0
 10
177.786467
 20
512.750090
 42
0.087495
  0
VERTEX
  8
0
 10
175.621391
 20
509.497404
 42
0.070145
  0
VERTEX
  8
0
 10
174.393075
 20
505.104962
 42
0.033113
  0
VERTEX
  8
0
 10
174.001554
 20
499.218615
 42
-0.008200
  0
VERTEX
  8
0
 10
173.936067
 20
495.276967
 42
-0.046911
  0
VERTEX
  8
0
 10
173.671855
 20
493.203880
 42
-0.103425
  0
VERTEX
  8
0
 10
173.141337
 20
492.036765
 42
-0.162085
  0
VERTEX
  8
0
 10
172.250000
 20
491.404905
 42
0.018744
  0
VERTEX
  8
0
 10
171.200275
 20
491.042087
 42
0.002402
  0
VERTEX
  8
0
 10
168.981948
 20
490.168726
 42
0.002807
  0
VERTEX
  8
0
 10
166.359128
 20
489.104419
 42
0.002336
  0
VERTEX
  8
0
 10
163.582165
 20
487.944157
 42
0.000000
  0
VERTEX
  8
0
 10
156.664330
 20
485.015735
 42
0.000000
  0
VERTEX
  8
0
 10
150.960018
 20
490.456726
 42
0.049925
  0
VERTEX
  8
0
 10
144.023192
 20
495.862795
 42
0.177057
  0
VERTEX
  8
0
 10
138.596121
 20
497.029519
 42
0.137159
  0
VERTEX
  8
0
 10
132.827107
 20
494.512936
 42
0.025887
  0
VERTEX
  8
0
 10
124.222747
 20
486.723677
 42
0.023910
  0
VERTEX
  8
0
 10
116.189493
 20
477.845952
 42
0.133937
  0
VERTEX
  8
0
 10
113.592152
 20
472.051629
 42
0.178105
  0
VERTEX
  8
0
 10
114.676240
 20
466.631311
 42
0.049904
  0
VERTEX
  8
0
 10
119.987575
 20
459.639354
 42
0.000000
  0
VERTEX
  8
0
 10
125.699693
 20
453.500000
 42
0.000000
  0
VERTEX
  8
0
 10
122.871243
 20
447.530757
 42
0.004211
  0
VERTEX
  8
0
 10
121.717287
 20
445.041446
 42
0.004038
  0
VERTEX
  8
0
 10
120.588896
 20
442.498131
 42
0.004001
  0
VERTEX
  8
0
 10
119.629654
 20
440.238759
 42
0.014518
  0
VERTEX
  8
0
 10
119.073416
 20
438.780757
 42
-0.065453
  0
VERTEX
  8
0
 10
118.255643
 20
437.155382
 42
-0.166567
  0
VERTEX
  8
0
 10
117.213615
 20
436.373332
 42
-0.072523
  0
VERTEX
  8
0
 10
115.369082
 20
436.058738
 42
-0.006034
  0
VERTEX
  8
0
 10
110.502360
 20
436.000000
 42
0.048516
  0
VERTEX
  8
0
 10
101.588844
 20
435.133067
 42
0.182550
  0
VERTEX
  8
0
 10
96.897928
 20
432.224452
 42
0.139853
  0
VERTEX
  8
0
 10
94.587803
 20
426.385385
 42
0.024713
  0
VERTEX
  8
0
 10
94.000000
 20
414.500000
 42
0.024713
  0
VERTEX
  8
0
 10
94.587614
 20
402.618737
 42
0.139699
  0
VERTEX
  8
0
 10
96.896304
 20
396.778157
 42
0.182552
  0
VERTEX
  8
0
 10
101.583222
 20
393.868136
 42
0.048664
  0
VERTEX
  8
0
 10
110.481725
 20
393.000000
 42
-0.007865
  0
VERTEX
  8
0
 10
114.589929
 20
392.935370
 42
-0.044758
  0
VERTEX
  8
0
 10
116.757134
 20
392.672031
 42
-0.097467
  0
VERTEX
  8
0
 10
117.991313
 20
392.143383
 42
-0.159884
  0
VERTEX
  8
0
 10
118.677110
 20
391.250000
 42
0.015887
  0
VERTEX
  8
0
 10
119.086478
 20
390.192616
 42
0.001952
  0
VERTEX
  8
0
 10
120.063065
 20
387.914950
 42
0.002308
  0
VERTEX
  8
0
 10
121.246555
 20
385.218402
 42
0.001905
  0
VERTEX
  8
0
 10
122.532566
 20
382.354086
 42
0.000000
  0
VERTEX
  8
0
 10
125.773682
 20
375.208173
 42
0.000000
  0
VERTEX
  8
0
 10
120.360174
 20
369.861911
 42
0.033525
  0
VERTEX
  8
0
 10
116.529104
 20
365.534389
 42
0.067780
  0
VERTEX
  8
0
 10
114.262833
 20
361.596793
 42
0.087287
  0
VERTEX
  8
0
 10
113.466305
 20
357.909662
 42
0.099365
  0
VERTEX
  8
0
 10
114.039170
 20
354.347456
 42
0.077035
  0
VERTEX
  8
0
 10
114.936142
 20
352.748758
 42
0.009369
  0
VERTEX
  8
0
 10
117.485965
 20
349.620018
 42
0.010935
  0
VERTEX
  8
0
 10
120.687574
 20
346.001961
 42
0.008814
  0
VERTEX
  8
0
 10
124.279128
 20
342.252605
 42
0.026097
  0
VERTEX
  8
0
 10
132.840052
 20
334.481420
 42
0.137547
  0
VERTEX
  8
0
 10
138.598523
 20
331.968201
 42
0.176957
  0
VERTEX
  8
0
 10
144.024085
 20
333.136810
 42
0.049876
  0
VERTEX
  8
0
 10
150.960018
 20
338.543274
 42
0.000000
  0
VERTEX
  8
0
 10
156.664330
 20
343.984265
 42
0.000000
  0
VERTEX
  8
0
 10
163.582165
 20
341.055843
 42
0.002336
  0
VERTEX
  8
0
 10
166.359128
 20
339.895581
 42
0.002807
  0
VERTEX
  8
0
 10
168.981948
 20
338.831274
 42
0.002402
  0
VERTEX
  8
0
 10
171.200275
 20
337.957913
 42
0.018744
  0
VERTEX
  8
0
 10
172.250000
 20
337.595095
 42
-0.163043
  0
VERTEX
  8
0
 10
173.142484
 20
336.959916
 42
-0.103099
  0
VERTEX
  8
0
 10
173.672525
 20
335.784234
 42
-0.046506
  0
VERTEX
  8
0
 10
173.935717
 20
333.691925
 42
-0.008047
  0
VERTEX
  8
0
 10
174.000000
 20
329.698051
 42
0.009251
  0
VERTEX
  8
0
 10
174.097354
 20
324.436486
 42
0.086322
  0
VERTEX
  8
0
 10
174.566868
 20
322.225194
 42
0.358556
  0
VERTEX
  8
0
 10
175.498028
 20
321.715521
 42
0.137283
  0
VERTEX
  8
0
 10
176.918848
 20
322.420536
 42
-0.093656
  0
VERTEX
  8
0
 10
178.049101
 20
323.108374
 42
-0.008837
  0
VERTEX
  8
0
 10
181.119912
 20
324.202437
 42
-0.011068
  0
VERTEX
  8
0
 10
184.863289
 20
325.370452
 42
-0.008493
  0
VERTEX
  8
0
 10
189.000000
 20
326.485662
 42
0.001439
  0
VERTEX
  8
0
 10
193.396811
 20
327.604707
 42
0.001312
  0
VERTEX
  8
0
 10
197.924929
 20
328.783742
 42
0.001312
  0
VERTEX
  8
0
 10
201.966353
 20
329.858727
 42
0.004261
  0
VERTEX
  8
0
 10
204.638056
 20
330.601360
 42
0.000000
  0
VERTEX
  8
0
 10
209.776111
 20
332.076831
 42
0.000000
  0
VERTEX
  8
0
 10
212.973069
 20
341.288415
 42
-0.009126
  0
VERTEX
  8
0
 10
214.476538
 20
345.377913
 42
-0.005872
  0
VERTEX
  8
0
 10
216.361318
 20
350.065455
 42
-0.005902
  0
VERTEX
  8
0
 10
218.314101
 20
354.609935
 42
-0.011034
  0
VERTEX
  8
0
 10
220.018188
 20
358.232283
 42
0.011987
  0
VERTEX
  8
0
 10
221.425423
 20
361.238473
 42
0.019419
  0
VERTEX
  8
0
 10
222.459060
 20
363.864337
 42
0.014112
  0
VERTEX
  8
0
 10
223.136913
 20
365.995462
 42
0.336100
  0
VERTEX
  8
0
 10
222.923736
 20
366.547134
 42
0.196105
  0
VERTEX
  8
0
 10
222.257326
 20
366.658976
 42
0.012209
  0
VERTEX
  8
0
 10
220.277975
 20
366.163182
 42
0.016588
  0
VERTEX
  8
0
 10
217.891544
 20
365.417059
 42
0.011445
  0
VERTEX
  8
0
 10
215.240561
 20
364.421990
 42
-0.046336
  0
VERTEX
  8
0
 10
208.493258
 20
362.413147
 42
-0.028987
  0
VERTEX
  8
0
 10
200.324822
 20
361.271990
 42
-0.028832
  0
VERTEX
  8
0
 10
191.993215
 20
361.078665
 42
-0.042595
  0
VERTEX
  8
0
 10
184.737420
 20
361.950516
 42
-0.040661
  0
VERTEX
  8
0
 10
178.878025
 20
363.673544
 42
-0.024832
  0
VERTEX
  8
0
 10
172.282676
 20
366.594591
 42
-0.024692
  0
VERTEX
  8
0
 10
165.932354
 20
370.196524
 42
-0.036807
  0
VERTEX
  8
0
 10
160.808067
 20
374.003114
 42
-0.042579
  0
VERTEX
  8
0
 10
156.250077
 20
378.673712
 42
-0.025951
  0
VERTEX
  8
0
 10
151.667206
 20
384.878071
 42
-0.025736
  0
VERTEX
  8
0
 10
147.682968
 20
391.633874
 42
-0.037152
  0
VERTEX
  8
0
 10
144.937838
 20
398.000000
 42
-0.050426
  0
VERTEX
  8
0
 10
143.153116
 20
405.551509
 42
-0.032841
  0
VERTEX
  8
0
 10
142.564734
 20
414.500000
 42
-0.032841
  0
VERTEX
  8
0
 10
143.153116
 20
423.448491
 42
-0.050426
  0
VERTEX
  8
0
 10
144.937838
 20
431.000000
 42
-0.060470
  0
VERTEX
  8
0
 10
150.908056
 20
443.245254
 42
-0.061441
  0
VERTEX
  8
0
 10
159.607843
 20
453.633710
 42
-0.061792
  0
VERTEX
  8
0
 10
170.521244
 20
461.548794
 42
-0.062446
  0
VERTEX
  8
0
 10
183.000000
 20
466.523178
 42
-0.066822
  0
VERTEX
  8
0
 10
195.739273
 20
468.074111
 42
-0.054432
  0
VERTEX
  8
0
 10
209.392924
 20
466.413153
 42
-0.067013
  0
VERTEX
  8
0
 10
219.530032
 20
462.555357
 42
-0.376329
  0
VERTEX
  8
0
 10
221.378765
 20
457.544662
 42
-0.126808
  0
VERTEX
  8
0
 10
220.088520
 20
455.732300
 42
-0.153780
  0
VERTEX
  8
0
 10
218.171402
 20
454.933746
 42
-0.084412
  0
VERTEX
  8
0
 10
215.219320
 20
455.167186
 42
-0.020247
  0
VERTEX
  8
0
 10
210.489810
 20
456.567342
 42
0.055170
  0
VERTEX
  8
0
 10
201.061350
 20
458.656778
 42
0.052476
  0
VERTEX
  8
0
 10
191.240066
 20
458.686235
 42
0.052412
  0
VERTEX
  8
0
 10
181.616363
 20
456.669344
 42
0.054749
  0
VERTEX
  8
0
 10
172.771788
 20
452.712146
 42
0.049191
  0
VERTEX
  8
0
 10
167.965413
 20
449.219552
 42
0.027691
  0
VERTEX
  8
0
 10
162.844075
 20
444.132234
 42
0.027722
  0
VERTEX
  8
0
 10
158.340414
 20
438.539359
 42
0.051575
  0
VERTEX
  8
0
 10
155.453517
 20
433.490811
 42
0.053644
  0
VERTEX
  8
0
 10
152.513985
 20
424.288921
 42
0.050651
  0
VERTEX
  8
0
 10
151.522935
 20
414.490532
 42
0.050624
  0
VERTEX
  8
0
 10
152.522092
 20
404.687920
 42
0.053463
  0
VERTEX
  8
0
 10
155.469274
 20
395.473560
 42
0.051785
  0
VERTEX
  8
0
 10
158.348221
 20
390.443802
 42
0.027630
  0
VERTEX
  8
0
 10
162.851424
 20
384.858973
 42
0.027598
  0
VERTEX
  8
0
 10
167.972024
 20
379.775280
 42
0.049167
  0
VERTEX
  8
0
 10
172.771788
 20
376.287854
 42
0.054844
  0
VERTEX
  8
0
 10
181.509906
 20
372.380279
 42
0.051003
  0
VERTEX
  8
0
 10
191.105258
 20
370.344962
 42
0.051381
  0
VERTEX
  8
0
 10
200.842438
 20
370.301846
 42
0.057596
  0
VERTEX
  8
0
 10
210.000000
 20
372.285404
 42
0.023896
  0
VERTEX
  8
0
 10
214.437250
 20
374.037950
 42
0.135092
  0
VERTEX
  8
0
 10
216.377025
 20
375.647079
 42
0.241726
  0
VERTEX
  8
0
 10
216.627858
 20
377.488459
 42
0.087113
  0
VERTEX
  8
0
 10
215.292000
 20
379.861290
 42
0.000000
  0
VERTEX
  8
0
 10
213.500000
 20
382.047885
 42
0.000000
  0
VERTEX
  8
0
 10
207.774983
 20
380.023942
 42
-0.058392
  0
VERTEX
  8
0
 10
200.027080
 20
378.265621
 42
-0.052792
  0
VERTEX
  8
0
 10
191.807691
 20
378.257200
 42
-0.057783
  0
VERTEX
  8
0
 10
184.957064
 20
379.788418
 42
-0.204775
  0
VERTEX
  8
0
 10
181.700644
 20
382.757671
 42
-0.039124
  0
VERTEX
  8
0
 10
181.183814
 20
384.176536
 42
-0.137793
  0
VERTEX
  8
0
 10
181.186461
 20
385.138408
 42
-0.124598
  0
VERTEX
  8
0
 10
181.693044
 20
386.013950
 42
-0.029431
  0
VERTEX
  8
0
 10
182.950769
 20
387.161219
 42
-0.042969
  0
VERTEX
  8
0
 10
183.994017
 20
387.866968
 42
-0.048618
  0
VERTEX
  8
0
 10
185.101392
 20
388.350547
 42
-0.054622
  0
VERTEX
  8
0
 10
186.126981
 20
388.564253
 42
-0.120100
  0
VERTEX
  8
0
 10
186.914808
 20
388.451015
 42
0.068655
  0
VERTEX
  8
0
 10
190.222839
 20
387.624930
 42
0.023697
  0
VERTEX
  8
0
 10
195.152182
 20
387.327648
 42
0.024108
  0
VERTEX
  8
0
 10
200.199631
 20
387.506184
 42
0.052554
  0
VERTEX
  8
0
 10
204.000000
 20
388.231454
 42
0.000000
  0
VERTEX
  8
0
 10
208.500000
 20
389.591902
 42
0.000000
  0
VERTEX
  8
0
 10
208.190799
 20
395.045951
 42
0.000000
  0
VERTEX
  8
0
 10
207.881599
 20
400.500000
 42
0.000000
  0
VERTEX
  8
0
 10
215.440799
 20
407.974972
 42
0.020199
  0
VERTEX
  8
0
 10
220.821827
 20
413.744063
 42
0.113500
  0
VERTEX
  8
0
 10
222.772128
 20
417.452285
 42
0.142586
  0
VERTEX
  8
0
 10
222.677616
 20
421.215025
 42
0.038501
  0
VERTEX
  8
0
 10
220.411734
 20
426.801285
 42
0.135866
  0
VERTEX
  8
0
 10
210.771414
 20
437.522090
 42
0.133482
  0
VERTEX
  8
0
 10
196.923562
 20
441.850400
 42
0.133962
  0
VERTEX
  8
0
 10
182.828100
 20
438.567996
 42
0.137246
  0
VERTEX
  8
0
 10
172.506202
 20
428.600795
 42
0.045694
  0
VERTEX
  8
0
 10
170.422007
 20
424.159472
 42
0.042433
  0
VERTEX
  8
0
 10
169.116279
 20
419.302463
 42
0.042752
  0
VERTEX
  8
0
 10
168.655973
 20
414.332689
 42
0.048159
  0
VERTEX
  8
0
 10
169.083807
 20
409.556446
 42
-0.024534
  0
VERTEX
  8
0
 10
169.605574
 20
405.758397
 42
-0.076361
  0
VERTEX
  8
0
 10
169.438360
 20
403.187941
 42
-0.125181
  0
VERTEX
  8
0
 10
168.598387
 20
401.519718
 42
-0.137849
  0
VERTEX
  8
0
 10
167.089725
 20
400.528478
 42
-0.179077
  0
VERTEX
  8
0
 10
163.993806
 20
400.674296
 42
-0.177571
  0
VERTEX
  8
0
 10
161.725152
 20
402.800263
 42
-0.090206
  0
VERTEX
  8
0
 10
160.387630
 20
407.341108
 42
-0.026638
  0
VERTEX
  8
0
 10
160.000000
 20
414.611711
 42
-0.039118
  0
VERTEX
  8
0
 10
160.550153
 20
421.633002
 42
-0.054459
  0
VERTEX
  8
0
 10
162.201275
 20
427.712268
 42
-0.054394
  0
VERTEX
  8
0
 10
165.127918
 20
433.297042
 42
-0.038901
  0
VERTEX
  8
0
 10
169.507019
 20
438.834238
 42
-0.021901
  0
VERTEX
  8
0
 10
172.070690
 20
441.370896
 42
-0.018732
  0
VERTEX
  8
0
 10
174.979796
 20
443.815482
 42
-0.019239
  0
VERTEX
  8
0
 10
177.945333
 20
445.945685
 42
-0.029820
  0
VERTEX
  8
0
 10
180.672231
 20
447.524504
 42
-0.021190
  0
VERTEX
  8
0
 10
184.253957
 20
449.136156
 42
-0.048006
  0
VERTEX
  8
0
 10
187.103012
 20
449.969353
 42
-0.037956
  0
VERTEX
  8
0
 10
190.442939
 20
450.347364
 42
-0.009206
  0
VERTEX
  8
0
 10
196.000000
 20
450.449694
 42
-0.009206
  0
VERTEX
  8
0
 10
201.557061
 20
450.347364
 42
-0.037956
  0
VERTEX
  8
0
 10
204.896988
 20
449.969353
 42
-0.048006
  0
VERTEX
  8
0
 10
207.746043
 20
449.136156
 42
-0.021190
  0
VERTEX
  8
0
 10
211.327769
 20
447.524504
 42
-0.052117
  0
VERTEX
  8
0
 10
216.703801
 20
444.083654
 42
-0.033323
  0
VERTEX
  8
0
 10
222.185462
 20
439.077402
 42
-0.033634
  0
VERTEX
  8
0
 10
226.818841
 20
433.540963
 42
-0.066292
  0
VERTEX
  8
0
 10
229.550106
 20
428.507971
 42
0.000000
  0
VERTEX
  8
0
 10
231.307665
 20
423.905867
 42
0.000000
  0
VERTEX
  8
0
 10
234.605046
 20
427.101815
 42
0.014323
  0
VERTEX
  8
0
 10
236.637541
 20
429.187957
 42
0.118974
  0
VERTEX
  8
0
 10
237.274173
 20
430.334449
 42
0.143459
  0
VERTEX
  8
0
 10
237.256020
 20
431.551318
 42
0.023977
  0
VERTEX
  8
0
 10
236.451214
 20
433.771005
 42
-0.013721
  0
VERTEX
  8
0
 10
235.297420
 20
436.760466
 42
-0.119316
  0
VERTEX
  8
0
 10
235.151445
 20
438.167310
 42
-0.177114
  0
VERTEX
  8
0
 10
235.707945
 20
439.224065
 42
-0.038883
  0
VERTEX
  8
0
 10
237.359095
 20
440.499633
 42
-0.078646
  0
VERTEX
  8
0
 10
239.478320
 20
441.453836
 42
-0.171224
  0
VERTEX
  8
0
 10
241.233495
 20
441.325380
 42
-0.136113
  0
VERTEX
  8
0
 10
242.789817
 20
440.059673
 42
-0.043148
  0
VERTEX
  8
0
 10
244.319572
 20
437.456039
 42
0.035294
  0
VERTEX
  8
0
 10
245.069061
 20
436.133349
 42
0.042554
  0
VERTEX
  8
0
 10
245.956991
 20
435.015212
 42
0.047730
  0
VERTEX
  8
0
 10
246.846432
 20
434.236352
 42
0.157233
  0
VERTEX
  8
0
 10
247.579451
 20
434.000000
 42
-0.077034
  0
VERTEX
  8
0
 10
248.378650
 20
433.876135
 42
-0.025258
  0
VERTEX
  8
0
 10
249.497512
 20
433.457505
 42
-0.024482
  0
VERTEX
  8
0
 10
250.711042
 20
432.860053
 42
-0.025362
  0
VERTEX
  8
0
 10
251.845630
 20
432.153209
 42
0.015379
  0
VERTEX
  8
0
 10
253.473319
 20
431.093494
 42
0.002114
  0
VERTEX
  8
0
 10
256.939127
 20
429.005926
 42
0.002426
  0
VERTEX
  8
0
 10
261.067770
 20
426.569927
 42
0.002050
  0
VERTEX
  8
0
 10
265.457780
 20
424.032420
 42
0.000000
  0
VERTEX
  8
0
 10
276.415560
 20
417.758423
 42
0.000000
  0
VERTEX
  8
0
 10
282.457780
 20
420.806697
 42
-0.005161
  0
VERTEX
  8
0
 10
285.082172
 20
422.096882
 42
-0.003965
  0
VERTEX
  8
0
 10
287.973535
 20
423.453362
 42
-0.004009
  0
VERTEX
  8
0
 10
290.698201
 20
424.679005
 42
-0.009508
  0
VERTEX
  8
0
 10
292.750000
 20
425.536065
 42
0.020596
  0
VERTEX
  8
0
 10
295.580315
 20
426.792721
 42
0.146940
  0
VERTEX
  8
0
 10
296.663917
 20
427.803880
 42
0.209918
  0
VERTEX
  8
0
 10
296.807125
 20
429.050798
 42
0.048016
  0
VERTEX
  8
0
 10
295.970356
 20
431.055391
 42
0.112639
  0
VERTEX
  8
0
 10
294.058801
 20
433.253743
 42
0.075523
  0
VERTEX
  8
0
 10
291.092417
 20
434.797984
 42
0.055943
  0
VERTEX
  8
0
 10
286.959375
 20
435.711141
 42
0.026425
  0
VERTEX
  8
0
 10
281.497640
 20
436.000000
 42
-0.006034
  0
VERTEX
  8
0
 10
276.630918
 20
436.058738
 42
-0.072523
  0
VERTEX
  8
0
 10
274.786385
 20
436.373332
 42
-0.166567
  0
VERTEX
  8
0
 10
273.744357
 20
437.155382
 42
-0.065453
  0
VERTEX
  8
0
 10
272.926584
 20
438.780757
 42
0.014518
  0
VERTEX
  8
0
 10
272.370346
 20
440.238759
 42
0.004001
  0
VERTEX
  8
0
 10
271.411104
 20
442.498131
 42
0.004038
  0
VERTEX
  8
0
 10
270.282713
 20
445.041446
 42
0.004211
  0
VERTEX
  8
0
 10
269.128757
 20
447.530757
 42
0.000000
  0
VERTEX
  8
0
 10
266.300307
 20
453.500000
 42
0.000000
  0
VERTEX
  8
0
 10
272.012425
 20
459.639354
 42
0.049904
  0
VERTEX
  8
0
 10
277.323760
 20
466.631311
 42
0.178105
  0
VERTEX
  8
0
 10
278.407848
 20
472.051629
 42
0.133937
  0
VERTEX
  8
0
 10
275.810507
 20
477.845952
 42
0.023910
  0
VERTEX
  8
0
 10
267.777253
 20
486.723677
 42
0.025887
  0
VERTEX
  8
0
 10
259.172893
 20
494.512936
 42
0.137159
  0
VERTEX
  8
0
 10
253.403879
 20
497.029519
 42
0.177057
  0
VERTEX
  8
0
 10
247.976808
 20
495.862795
 42
0.049925
  0
VERTEX
  8
0
 10
241.039982
 20
490.456726
 42
0.000000
  0
VERTEX
  8
0
 10
235.335670
 20
485.015735
 42
0.000000
  0
VERTEX
  8
0
 10
228.417835
 20
487.944157
 42
0.002336
  0
VERTEX
  8
0
 10
225.640872
 20
489.104419
 42
0.002807
  0
VERTEX
  8
0
 10
223.018052
 20
490.168726
 42
0.002402
  0
VERTEX
  8
0
 10
220.799725
 20
491.042087
 42
0.018744
  0
VERTEX
  8
0
 10
219.750000
 20
491.404905
 42
-0.162085
  0
VERTEX
  8
0
 10
218.858663
 20
492.036765
 42
-0.103425
  0
VERTEX
  8
0
 10
218.328145
 20
493.203880
 42
-0.046911
  0
VERTEX
  8
0
 10
218.063933
 20
495.276967
 42
-0.008200
  0
VERTEX
  8
0
 10
217.998446
 20
499.218615
 42
0.056888
  0
VERTEX
  8
0
 10
216.963050
 20
508.272244
 42
0.167411
  0
VERTEX
  8
0
 10
213.682519
 20
513.513293
 42
0.137138
  0
VERTEX
  8
0
 10
207.376916
 20
516.232993
 42
0.033671
  0
VERTEX
  8
0
 10
196.000000
 20
517.000000
 42
0.006573
  0
VERTEX
  8
0
 10
189.924284
 20
516.920120
 42
0.023829
  0
VERTEX
  8
0
 10
186.070968
 20
516.634678
 42
0.037244
  0
VERTEX
  8
0
 10
183.303869
 20
516.085146
 42
0.053597
  0
SEQEND
  0
POLYLINE
  8
0
 66
1
 70
1
  0
VERTEX
  8
0
 10
233.065741
 20
452.964816
 42
-0.177174
  0
VERTEX
  8
0
 10
234.841999
 20
450.974748
 42
-0.163123
  0
VERTEX
  8
0
 10
234.992023
 20
448.228924
 42
-0.159132
  0
VERTEX
  8
0
 10
233.450670
 20
445.898916
 42
-0.169276
  0
VERTEX
  8
0
 10
230.871572
 20
445.000000
 42
-0.048880
  0
VERTEX
  8
0
 10
229.420361
 20
445.142209
 42
-0.093279
  0
VERTEX
  8
0
 10
228.336575
 20
445.576826
 42
-0.094016
  0
VERTEX
  8
0
 10
227.490351
 20
446.372922
 42
-0.050269
  0
VERTEX
  8
0
 10
226.764522
 20
447.617473
 42
-0.033085
  0
VERTEX
  8
0
 10
226.190207
 20
449.136906
 42
-0.136265
  0
VERTEX
  8
0
 10
226.166468
 20
450.110718
 42
-0.131632
  0
VERTEX
  8
0
 10
226.648524
 20
450.976076
 42
-0.030042
  0
VERTEX
  8
0
 10
227.896745
 20
452.117473
 42
-0.011628
  0
VERTEX
  8
0
 10
229.695971
 20
453.506392
 42
-0.118466
  0
VERTEX
  8
0
 10
230.558883
 20
453.869514
 42
-0.144455
  0
VERTEX
  8
0
 10
231.422250
 20
453.761517
 42
-0.020010
  0
SEQEND
  0
POLYLINE
  8
0
 66
1
 70
1
  0
VERTEX
  8
0
 10
176.989223
 20
394.512986
 42
-0.147429
  0
VERTEX
  8
0
 10
177.738630
 20
392.740348
 42
-0.098428
  0
VERTEX
  8
0
 10
177.541391
 20
390.529992
 42
-0.098438
  0
VERTEX
  8
0
 10
176.513842
 20
388.563297
 42
-0.147495
  0
VERTEX
  8
0
 10
174.926012
 20
387.476517
 42
-0.150336
  0
VERTEX
  8
0
 10
173.062446
 20
387.459942
 42
-0.089643
  0
VERTEX
  8
0
 10
171.066775
 20
388.469537
 42
-0.088826
  0
VERTEX
  8
0
 10
169.535371
 20
390.125130
 42
-0.143284
  0
VERTEX
  8
0
 10
169.000000
 20
391.954988
 42
-0.177228
  0
VERTEX
  8
0
 10
169.845967
 20
394.266680
 42
-0.140744
  0
VERTEX
  8
0
 10
172.071167
 20
395.755022
 42
-0.135990
  0
VERTEX
  8
0
 10
174.808468
 20
395.863327
 42
-0.163252
  0
SEQEND
  0
POLYLINE
  8
0
 66
1
 70
1
  0
VERTEX
  8
0
 10
506.464436
 20
516.264796
 42
0.099098
  0
VERTEX
  8
0
 10
503.286418
 20
515.044104
 42
0.086693
  0
VERTEX
  8
0
 10
500.647606
 20
512.647988
 42
0.065336
  0
VERTEX
  8
0
 10
498.435704
 20
508.873955
 42
0.029760
  0
VERTEX
  8
0
 10
496.524532
 20
503.473497
 42
0.000000
  0
VERTEX
  8
0
 10
494.226240
 20
495.500000
 42
0.000000
  0
VERTEX
  8
0
 10
489.863120
 20
495.263535
 42
0.013505
  0
VERTEX
  8
0
 10
487.838895
 20
495.098902
 42
0.007115
  0
VERTEX
  8
0
 10
485.335126
 20
494.790920
 42
0.007074
  0
VERTEX
  8
0
 10
482.778599
 20
494.402524
 42
0.010823
  0
VERTEX
  8
0
 10
480.575608
 20
493.986691
 42
-0.022706
  0
VERTEX
  8
0
 10
477.037787
 20
493.405575
 42
-0.180345
  0
VERTEX
  8
0
 10
475.454675
 20
493.792074
 42
-0.116671
  0
VERTEX
  8
0
 10
474.175407
 20
495.186943
 42
-0.007258
  0
VERTEX
  8
0
 10
471.492992
 20
500.151348
 42
0.038098
  0
VERTEX
  8
0
 10
469.331915
 20
503.621167
 42
0.048044
  0
VERTEX
  8
0
 10
466.812575
 20
506.440848
 42
0.053187
  0
VERTEX
  8
0
 10
464.055836
 20
508.490381
 42
0.071905
  0
VERTEX
  8
0
 10
461.186552
 20
509.668027
 42
0.108488
  0
VERTEX
  8
0
 10
458.244105
 20
509.755659
 42
0.049655
  0
VERTEX
  8
0
 10
454.539241
 20
508.667864
 42
0.030894
  0
VERTEX
  8
0
 10
449.496178
 20
506.252997
 42
0.008770
  0
VERTEX
  8
0
 10
441.972570
 20
501.886211
 42
0.033633
  0
VERTEX
  8
0
 10
433.774034
 20
496.147906
 42
0.142200
  0
VERTEX
  8
0
 10
430.372416
 20
491.284860
 42
0.166200
  0
VERTEX
  8
0
 10
430.380724
 20
485.807904
 42
0.050504
  0
VERTEX
  8
0
 10
433.903402
 20
478.163830
 42
-0.012979
  0
VERTEX
  8
0
 10
436.196968
 20
474.032479
 42
-0.100836
  0
VERTEX
  8
0
 10
436.803010
 20
471.923705
 42
-0.160021
  0
VERTEX
  8
0
 10
436.382191
 20
470.192809
 42
-0.047123
  0
VERTEX
  8
0
 10
434.707358
 20
467.989782
 42
0.016347
  0
VERTEX
  8
0
 10
433.606597
 20
466.713024
 42
0.006126
  0
VERTEX
  8
0
 10
432.144981
 20
464.855063
 42
0.006061
  0
VERTEX
  8
0
 10
430.601157
 20
462.791006
 42
0.007318
  0
VERTEX
  8
0
 10
429.203824
 20
460.814688
 42
0.000000
  0
VERTEX
  8
0
 10
425.992932
 20
456.129376
 42
0.000000
  0
VERTEX
  8
0
 10
418.764532
 20
458.132468
 42
0.059051
  0
VERTEX
  8
0
 10
410.057188
 20
459.469538
 42
0.169954
  0
VERTEX
  8
0
 10
404.305964
 20
457.676038
 42
0.136863
  0
VERTEX
  8
0
 10
400.166055
 20
452.339391
 42
0.033505
  0
VERTEX
  8
0
 10
396.626187
 20
441.684527
 42
0.003958
  0
VERTEX
  8
0
 10
395.615035
 20
437.654926
 42
0.005254
  0
VERTEX
  8
0
 10
394.762881
 20
433.972890
 42
0.003797
  0
VERTEX
  8
0
 10
394.105863
 20
430.880187
 42
0.051562
  0
VERTEX
  8
0
 10
393.992347
 20
429.733821
 42
0.137246
  0
VERTEX
  8
0
 10
394.220925
 20
428.930217
 42
0.062441
  0
VERTEX
  8
0
 10
394.909101
 20
428.069800
 42
0.052388
  0
VERTEX
  8
0
 10
395.951119
 20
427.249725
 42
0.038735
  0
VERTEX
  8
0
 10
397.250000
 20
426.565811
 42
-0.002868
  0
VERTEX
  8
0
 10
398.994922
 20
425.801270
 42
-0.000732
  0
VERTEX
  8
0
 10
401.812510
 20
424.542484
 42
-0.000746
  0
VERTEX
  8
0
 10
405.024856
 20
423.095932
 42
-0.000756
  0
VERTEX
  8
0
 10
408.218121
 20
421.646419
 42
0.000000
  0
VERTEX
  8
0
 10
415.936242
 20
418.128860
 42
0.000000
  0
VERTEX
  8
0
 10
425.218121
 20
423.566722
 42
-0.000561
  0
VERTEX
  8
0
 10
429.182001
 20
425.883022
 42
-0.000462
  0
VERTEX
  8
0
 10
433.417810
 20
428.346617
 42
-0.000466
  0
VERTEX
  8
0
 10
437.312335
 20
430.602061
 42
-0.001240
  0
VERTEX
  8
0
 10
440.097827
 20
432.202559
 42
0.022702
  0
VERTEX
  8
0
 10
443.021603
 20
434.053739
 42
0.045335
  0
VERTEX
  8
0
 10
445.112610
 20
435.816545
 42
0.047324
  0
VERTEX
  8
0
 10
446.795228
 20
437.875429
 42
0.027074
  0
VERTEX
  8
0
 10
448.437082
 20
440.636592
 42
-0.055740
  0
VERTEX
  8
0
 10
453.948816
 20
448.803206
 42
-0.046715
  0
VERTEX
  8
0
 10
461.438055
 20
456.099947
 42
-0.045754
  0
VERTEX
  8
0
 10
470.328859
 20
462.021642
 42
-0.048169
  0
VERTEX
  8
0
 10
480.000000
 20
466.109022
 42
-0.043964
  0
VERTEX
  8
0
 10
487.372489
 20
467.724651
 42
-0.032619
  0
VERTEX
  8
0
 10
495.699873
 20
468.247014
 42
-0.032869
  0
VERTEX
  8
0
 10
503.929660
 20
467.684191
 42
-0.047993
  0
VERTEX
  8
0
 10
511.000000
 20
466.029402
 42
-0.030035
  0
VERTEX
  8
0
 10
519.786596
 20
462.459962
 42
-0.049549
  0
VERTEX
  8
0
 10
526.634054
 20
458.309270
 42
-0.067747
  0
VERTEX
  8
0
 10
530.737661
 20
454.255842
 42
-0.295056
  0
VERTEX
  8
0
 10
531.005767
 20
451.010776
 42
-0.112234
  0
VERTEX
  8
0
 10
529.548338
 20
449.331975
 42
-0.185751
  0
VERTEX
  8
0
 10
527.760456
 20
448.846740
 42
-0.098736
  0
VERTEX
  8
0
 10
525.246462
 20
449.622023
 42
-0.020067
  0
VERTEX
  8
0
 10
521.217837
 20
452.015575
 42
0.075893
  0
VERTEX
  8
0
 10
507.023381
 20
458.435115
 42
0.085767
  0
VERTEX
  8
0
 10
492.158766
 20
459.958364
 42
0.086578
  0
VERTEX
  8
0
 10
477.757465
 20
456.407834
 42
0.079143
  0
VERTEX
  8
0
 10
464.901335
 20
448.123780
 42
0.023528
  0
VERTEX
  8
0
 10
462.523609
 20
445.783749
 42
0.016963
  0
VERTEX
  8
0
 10
460.090294
 20
442.966569
 42
0.017200
  0
VERTEX
  8
0
 10
457.933178
 20
440.093991
 42
0.031856
  0
VERTEX
  8
0
 10
456.419023
 20
437.602098
 42
0.000000
  0
VERTEX
  8
0
 10
453.535374
 20
432.094402
 42
0.000000
  0
VERTEX
  8
0
 10
456.454778
 20
429.047201
 42
0.010221
  0
VERTEX
  8
0
 10
457.619891
 20
427.879818
 42
0.014546
  0
VERTEX
  8
0
 10
458.705187
 20
426.895115
 42
0.010471
  0
VERTEX
  8
0
 10
459.636845
 20
426.131168
 42
0.168022
  0
VERTEX
  8
0
 10
460.016154
 20
426.000000
 42
0.254672
  0
VERTEX
  8
0
 10
460.358881
 20
426.186673
 42
0.009234
  0
VERTEX
  8
0
 10
461.169750
 20
427.494965
 42
0.014914
  0
VERTEX
  8
0
 10
462.081804
 20
429.138774
 42
0.009675
  0
VERTEX
  8
0
 10
463.041799
 20
431.089243
 42
-0.036170
  0
VERTEX
  8
0
 10
464.372662
 20
433.466619
 42
-0.019468
  0
VERTEX
  8
0
 10
466.329653
 20
436.198717
 42
-0.018847
  0
VERTEX
  8
0
 10
468.624966
 20
438.933784
 42
-0.022129
  0
VERTEX
  8
0
 10
471.005266
 20
441.339243
 42
-0.146353
  0
VERTEX
  8
0
 10
489.483770
 20
450.397059
 42
-0.146404
  0
VERTEX
  8
0
 10
509.898150
 20
447.818996
 42
-0.146637
  0
VERTEX
  8
0
 10
525.518717
 20
434.458770
 42
-0.146913
  0
VERTEX
  8
0
 10
531.201160
 20
414.719561
 42
-0.068201
  0
VERTEX
  8
0
 10
529.686852
 20
404.536983
 42
-0.072200
  0
VERTEX
  8
0
 10
525.496038
 20
395.350077
 42
-0.072573
  0
VERTEX
  8
0
 10
518.889039
 20
387.771541
 42
-0.070003
  0
VERTEX
  8
0
 10
510.315412
 20
382.286862
 42
-0.052606
  0
VERTEX
  8
0
 10
504.365442
 20
380.287207
 42
-0.036407
  0
VERTEX
  8
0
 10
497.334971
 20
379.251085
 42
-0.036971
  0
VERTEX
  8
0
 10
490.453678
 20
379.253605
 42
-0.068474
  0
VERTEX
  8
0
 10
485.000000
 20
380.421764
 42
0.001867
  0
VERTEX
  8
0
 10
483.210788
 20
381.062755
 42
0.002384
  0
VERTEX
  8
0
 10
481.556987
 20
381.639415
 42
0.001849
  0
VERTEX
  8
0
 10
480.166682
 20
382.111032
 42
0.020084
  0
VERTEX
  8
0
 10
479.598253
 20
382.276444
 42
0.292885
  0
VERTEX
  8
0
 10
478.354168
 20
381.854732
 42
0.025811
  0
VERTEX
  8
0
 10
476.324936
 20
379.027490
 42
0.025607
  0
VERTEX
  8
0
 10
474.603387
 20
376.018795
 42
0.324168
  0
VERTEX
  8
0
 10
474.797769
 20
374.802231
 42
0.126753
  0
VERTEX
  8
0
 10
477.027764
 20
373.485925
 42
0.011071
  0
VERTEX
  8
0
 10
483.434937
 20
371.788791
 42
0.015370
  0
VERTEX
  8
0
 10
490.030648
 20
370.410147
 42
0.043857
  0
VERTEX
  8
0
 10
494.697597
 20
370.000000
 42
0.078778
  0
VERTEX
  8
0
 10
509.055582
 20
372.276307
 42
0.080461
  0
VERTEX
  8
0
 10
521.890527
 20
378.877572
 42
0.079711
  0
VERTEX
  8
0
 10
532.078881
 20
389.257243
 42
0.075306
  0
VERTEX
  8
0
 10
538.750582
 20
402.500000
 42
0.045072
  0
VERTEX
  8
0
 10
539.296761
 20
404.872486
 42
0.016580
  0
VERTEX
  8
0
 10
539.650557
 20
408.294222
 42
0.014403
  0
VERTEX
  8
0
 10
539.823502
 20
412.502856
 42
0.009169
  0
VERTEX
  8
0
 10
539.793738
 20
417.404971
 42
-0.003569
  0
VERTEX
  8
0
 10
539.674175
 20
424.326731
 42
-0.044475
  0
VERTEX
  8
0
 10
539.880537
 20
426.941559
 42
-0.131286
  0
VERTEX
  8
0
 10
540.524156
 20
428.349670
 42
-0.115837
  0
VERTEX
  8
0
 10
541.811742
 20
429.329200
 42
-0.050116
  0
VERTEX
  8
0
 10
543.069396
 20
429.745349
 42
-0.115642
  0
VERTEX
  8
0
 10
544.058992
 20
429.734606
 42
-0.102355
  0
VERTEX
  8
0
 10
545.016133
 20
429.278006
 42
-0.034084
  0
VERTEX
  8
0
 10
546.192462
 20
428.251983
 42
-0.076392
  0
VERTEX
  8
0
 10
547.283443
 20
426.764784
 42
-0.065865
  0
VERTEX
  8
0
 10
547.946499
 20
424.942018
 42
-0.038225
  0
VERTEX
  8
0
 10
548.329946
 20
422.239232
 42
-0.008458
  0
VERTEX
  8
0
 10
548.552645
 20
417.564311
 42
-0.015113
  0
VERTEX
  8
0
 10
548.554408
 20
413.750551
 42
-0.012335
  0
VERTEX
  8
0
 10
548.332362
 20
409.675091
 42
-0.012654
  0
VERTEX
  8
0
 10
547.931477
 20
405.849360
 42
-0.024873
  0
VERTEX
  8
0
 10
547.385517
 20
402.839671
 42
-0.058010
  0
VERTEX
  8
0
 10
543.561382
 20
392.201026
 42
-0.051421
  0
VERTEX
  8
0
 10
537.270352
 20
382.249033
 42
-0.051647
  0
VERTEX
  8
0
 10
529.113837
 20
373.831819
 42
-0.059797
  0
VERTEX
  8
0
 10
519.772901
 20
367.732325
 42
-0.021764
  0
VERTEX
  8
0
 10
513.183253
 20
364.825083
 42
-0.036464
  0
VERTEX
  8
0
 10
507.400652
 20
363.042138
 42
-0.036579
  0
VERTEX
  8
0
 10
501.433213
 20
362.121567
 42
-0.022067
  0
VERTEX
  8
0
 10
494.277335
 20
361.865227
 42
-0.029354
  0
VERTEX
  8
0
 10
488.606328
 20
362.245816
 42
-0.026456
  0
VERTEX
  8
0
 10
482.815179
 20
363.291270
 42
-0.025356
  0
VERTEX
  8
0
 10
476.926897
 20
364.998527
 42
-0.022165
  0
VERTEX
  8
0
 10
470.965138
 20
367.360582
 42
0.314367
  0
VERTEX
  8
0
 10
469.853529
 20
367.149540
 42
0.031551
  0
VERTEX
  8
0
 10
467.992577
 20
364.988495
 42
0.021075
  0
VERTEX
  8
0
 10
465.349046
 20
361.171314
 42
0.004675
  0
VERTEX
  8
0
 10
461.166012
 20
354.412558
 42
0.017268
  0
VERTEX
  8
0
 10
454.188277
 20
341.947478
 42
0.065917
  0
VERTEX
  8
0
 10
451.189427
 20
333.580370
 42
0.117077
  0
VERTEX
  8
0
 10
451.316468
 20
327.411196
 42
0.135220
  0
VERTEX
  8
0
 10
454.243516
 20
322.328429
 42
0.113406
  0
VERTEX
  8
0
 10
457.594744
 20
320.256923
 42
0.010149
  0
VERTEX
  8
0
 10
467.086600
 20
317.242546
 42
0.013080
  0
VERTEX
  8
0
 10
476.680881
 20
314.679499
 42
0.058790
  0
VERTEX
  8
0
 10
482.439952
 20
314.000000
 42
0.102522
  0
VERTEX
  8
0
 10
486.218743
 20
314.783052
 42
0.101158
  0
VERTEX
  8
0
 10
489.395837
 20
317.004965
 42
0.078765
  0
VERTEX
  8
0
 10
492.013202
 20
320.817091
 42
0.038430
  0
VERTEX
  8
0
 10
494.139150
 20
326.336879
 42
-0.003203
  0
VERTEX
  8
0
 10
494.990255
 20
329.115574
 42
-0.004782
  0
VERTEX
  8
0
 10
495.773037
 20
331.532662
 42
-0.002136
  0
VERTEX
  8
0
 10
496.467999
 20
333.581419
 42
-0.097190
  0
VERTEX
  8
0
 10
496.690679
 20
333.965800
 42
-0.171055
  0
VERTEX
  8
0
 10
497.056899
 20
334.172152
 42
-0.004403
  0
VERTEX
  8
0
 10
498.946917
 20
334.487806
 42
-0.008857
  0
VERTEX
  8
0
 10
501.201708
 20
334.803173
 42
-0.005874
  0
VERTEX
  8
0
 10
503.799133
 20
335.088741
 42
0.005485
  0
VERTEX
  8
0
 10
506.547902
 20
335.388787
 42
0.005628
  0
VERTEX
  8
0
 10
509.265995
 20
335.746777
 42
0.005465
  0
VERTEX
  8
0
 10
511.616665
 20
336.109596
 42
0.023533
  0
VERTEX
  8
0
 10
513.000000
 20
336.406072
 42
-0.088189
  0
VERTEX
  8
0
 10
514.479547
 20
336.528053
 42
-0.160503
  0
VERTEX
  8
0
 10
515.579457
 20
336.047439
 42
-0.077087
  0
VERTEX
  8
0
 10
516.680009
 20
334.704924
 42
-0.010217
  0
VERTEX
  8
0
 10
518.486058
 20
331.494065
 42
0.050133
  0
VERTEX
  8
0
 10
523.725736
 20
323.704308
 42
0.173891
  0
VERTEX
  8
0
 10
528.872462
 20
320.659991
 42
0.145819
  0
VERTEX
  8
0
 10
535.377800
 20
321.311294
 42
0.032019
  0
VERTEX
  8
0
 10
545.589332
 20
326.286889
 42
0.011111
  0
VERTEX
  8
0
 10
553.877443
 20
331.250900
 42
0.061528
  0
VERTEX
  8
0
 10
557.894440
 20
334.531004
 42
0.111566
  0
VERTEX
  8
0
 10
559.817030
 20
337.731639
 42
0.082217
  0
VERTEX
  8
0
 10
560.456023
 20
341.830564
 42
0.037440
  0
VERTEX
  8
0
 10
560.239252
 20
344.397020
 42
0.042861
  0
VERTEX
  8
0
 10
559.642751
 20
346.785060
 42
0.036044
  0
VERTEX
  8
0
 10
558.551200
 20
349.348894
 42
0.017016
  0
VERTEX
  8
0
 10
556.798891
 20
352.491986
 42
0.000000
  0
VERTEX
  8
0
 10
553.185736
 20
358.483972
 42
0.000000
  0
VERTEX
  8
0
 10
555.140441
 20
360.991986
 42
0.002349
  0
VERTEX
  8
0
 10
558.228652
 20
364.992991
 42
0.003457
  0
VERTEX
  8
0
 10
560.900867
 20
368.539430
 42
0.002890
  0
VERTEX
  8
0
 10
563.038782
 20
371.452997
 42
0.028011
  0
VERTEX
  8
0
 10
563.867145
 20
372.741808
 42
-0.138635
  0
VERTEX
  8
0
 10
564.399750
 20
373.268735
 42
-0.113938
  0
VERTEX
  8
0
 10
565.171830
 20
373.488768
 42
-0.066157
  0
VERTEX
  8
0
 10
566.311861
 20
373.395774
 42
-0.018874
  0
VERTEX
  8
0
 10
568.035167
 20
372.953433
 42
0.026269
  0
VERTEX
  8
0
 10
576.022025
 20
371.028720
 42
0.071614
  0
VERTEX
  8
0
 10
581.816804
 20
370.791192
 42
0.106395
  0
VERTEX
  8
0
 10
586.037623
 20
372.161920
 42
0.118126
  0
VERTEX
  8
0
 10
589.135912
 20
375.113568
 42
0.073065
  0
VERTEX
  8
0
 10
591.150684
 20
379.522975
 42
0.008649
  0
VERTEX
  8
0
 10
593.982695
 20
389.940771
 42
0.006675
  0
VERTEX
  8
0
 10
596.538700
 20
400.626737
 42
0.117369
  0
VERTEX
  8
0
 10
596.495437
 20
404.162156
 42
0.087653
  0
VERTEX
  8
0
 10
595.158567
 20
407.149649
 42
0.070606
  0
VERTEX
  8
0
 10
592.791618
 20
409.759649
 42
0.061518
  0
VERTEX
  8
0
 10
589.462517
 20
411.895066
 42
0.042919
  0
VERTEX
  8
0
 10
585.284674
 20
413.475576
 42
-0.000128
  0
VERTEX
  8
0
 10
582.955578
 20
414.135595
 42
-0.000149
  0
VERTEX
  8
0
 10
580.741079
 20
414.764468
 42
-0.000133
  0
VERTEX
  8
0
 10
578.867230
 20
415.297746
 42
-0.000897
  0
VERTEX
  8
0
 10
577.940275
 20
415.563611
 42
-0.208315
  0
VERTEX
  8
0
 10
577.137227
 20
416.228918
 42
-0.044100
  0
VERTEX
  8
0
 10
576.447036
 20
417.956771
 42
-0.029133
  0
VERTEX
  8
0
 10
575.791759
 20
420.710189
 42
-0.008698
  0
VERTEX
  8
0
 10
575.112112
 20
424.976018
 42
-0.008261
  0
VERTEX
  8
0
 10
574.674201
 20
428.487160
 42
-0.011762
  0
VERTEX
  8
0
 10
574.410352
 20
431.619466
 42
-0.007864
  0
VERTEX
  8
0
 10
574.293702
 20
434.222330
 42
-0.146697
  0
VERTEX
  8
0
 10
574.504351
 20
435.007040
 42
-0.096068
  0
VERTEX
  8
0
 10
575.030352
 20
435.577215
 42
-0.009441
  0
VERTEX
  8
0
 10
576.563665
 20
436.660890
 42
-0.011656
  0
VERTEX
  8
0
 10
578.462312
 20
437.886053
 42
-0.008984
  0
VERTEX
  8
0
 10
580.587023
 20
439.136022
 42
0.061601
  0
VERTEX
  8
0
 10
587.136647
 20
443.980529
 42
0.164172
  0
VERTEX
  8
0
 10
589.813876
 20
449.055195
 42
0.136876
  0
VERTEX
  8
0
 10
589.105715
 20
455.349094
 42
0.038017
  0
VERTEX
  8
0
 10
584.653684
 20
464.332628
 42
-0.003772
  0
VERTEX
  8
0
 10
582.870284
 20
467.386505
 42
-0.005688
  0
VERTEX
  8
0
 10
581.367020
 20
470.076276
 42
-0.002464
  0
VERTEX
  8
0
 10
580.124331
 20
472.387491
 42
-0.122712
  0
VERTEX
  8
0
 10
580.000000
 20
472.886461
 42
0.166727
  0
VERTEX
  8
0
 10
579.853597
 20
473.313307
 42
0.010410
  0
VERTEX
  8
0
 10
579.001021
 20
474.364061
 42
0.014465
  0
VERTEX
  8
0
 10
577.902054
 20
475.588623
 42
0.010174
  0
VERTEX
  8
0
 10
576.599219
 20
476.903833
 42
0.091238
  0
VERTEX
  8
0
 10
572.617163
 20
479.557403
 42
0.116196
  0
VERTEX
  8
0
 10
568.283149
 20
480.321359
 42
0.088480
  0
VERTEX
  8
0
 10
563.179267
 20
479.108115
 42
0.035445
  0
VERTEX
  8
0
 10
556.790249
 20
475.775921
 42
0.000000
  0
VERTEX
  8
0
 10
551.970834
 20
472.810505
 42
0.000000
  0
VERTEX
  8
0
 10
544.485417
 20
478.543872
 42
-0.009445
  0
VERTEX
  8
0
 10
541.617206
 20
480.827977
 42
-0.013977
  0
VERTEX
  8
0
 10
539.198841
 20
482.946282
 42
-0.009083
  0
VERTEX
  8
0
 10
537.290537
 20
484.780012
 42
-0.199370
  0
VERTEX
  8
0
 10
537.000000
 20
485.479689
 42
-0.053307
  0
VERTEX
  8
0
 10
537.077707
 20
486.206488
 42
-0.006498
  0
VERTEX
  8
0
 10
537.437445
 20
487.770917
 42
-0.007644
  0
VERTEX
  8
0
 10
537.918957
 20
489.623377
 42
-0.006236
  0
VERTEX
  8
0
 10
538.489176
 20
491.591069
 42
0.026196
  0
VERTEX
  8
0
 10
539.610859
 20
496.132238
 42
0.056551
  0
VERTEX
  8
0
 10
539.886657
 20
499.716630
 42
0.068584
  0
VERTEX
  8
0
 10
539.345441
 20
502.811148
 42
0.059423
  0
VERTEX
  8
0
 10
537.974365
 20
505.810176
 42
0.074707
  0
VERTEX
  8
0
 10
535.885630
 20
508.306956
 42
0.067822
  0
VERTEX
  8
0
 10
533.089728
 20
510.177255
 42
0.041317
  0
VERTEX
  8
0
 10
528.795191
 20
511.850632
 42
0.010081
  0
VERTEX
  8
0
 10
521.463599
 20
513.870285
 42
0.004439
  0
VERTEX
  8
0
 10
515.237056
 20
515.392483
 42
0.018148
  0
VERTEX
  8
0
 10
511.419219
 20
516.144949
 42
0.029954
  0
VERTEX
  8
0
 10
508.714563
 20
516.411996
 42
0.051973
  0
SEQEND
  0
POLYLINE
  8
0
 66
1
 70
1
  0
VERTEX
  8
0
 10
540.800000
 20
442.800000
 42
-0.185679
  0
VERTEX
  8
0
 10
542.036713
 20
440.017378
 42
-0.189179
  0
VERTEX
  8
0
 10
541.077246
 20
437.149911
 42
-0.203597
  0
VERTEX
  8
0
 10
538.502297
 20
435.834597
 42
-0.201037
  0
VERTEX
  8
0
 10
535.750000
 20
436.765747
 42
-0.133741
  0
VERTEX
  8
0
 10
534.328018
 20
438.927287
 42
-0.155616
  0
VERTEX
  8
0
 10
534.310327
 20
441.377888
 42
-0.166230
  0
VERTEX
  8
0
 10
535.695752
 20
443.274109
 42
-0.153786
  0
VERTEX
  8
0
 10
538.000000
 20
444.000000
 42
-0.062206
  0
VERTEX
  8
0
 10
538.700322
 20
443.912533
 42
-0.039117
  0
VERTEX
  8
0
 10
539.482500
 20
443.647500
 42
-0.038823
  0
VERTEX
  8
0
 10
540.223325
 20
443.259462
 42
-0.056383
  0
SEQEND
  0
POLYLINE
  8
0
 66
1
 70
1
  0
VERTEX
  8
0
 10
322.588054
 20
460.250000
 42
0.011025
  0
VERTEX
  8
0
 10
322.232398
 20
459.016685
 42
0.000440
  0
VERTEX
  8
0
 10
321.039964
 20
454.494729
 42
0.000775
  0
VERTEX
  8
0
 10
319.640882
 20
449.136366
 42
0.000548
  0
VERTEX
  8
0
 10
318.085700
 20
443.115034
 42
-0.003510
  0
VERTEX
  8
0
 10
316.510736
 20
437.162971
 42
-0.005356
  0
VERTEX
  8
0
 10
315.052618
 20
432.022840
 42
-0.002113
  0
VERTEX
  8
0
 10
313.739766
 20
427.644948
 42
-0.130077
  0
VERTEX
  8
0
 10
313.315034
 20
426.958794
 42
-0.095183
  0
VERTEX
  8
0
 10
312.662875
 20
426.542596
 42
-0.003577
  0
VERTEX
  8
0
 10
309.948791
 20
425.486539
 42
-0.006347
  0
VERTEX
  8
0
 10
306.698979
 20
424.295734
 42
-0.004411
  0
VERTEX
  8
0
 10
303.000000
 20
423.029925
 42
0.008811
  0
VERTEX
  8
0
 10
298.923507
 20
421.594736
 42
0.006795
  0
VERTEX
  8
0
 10
294.528125
 20
419.891324
 42
0.006876
  0
VERTEX
  8
0
 10
290.463905
 20
418.187038
 42
0.016287
  0
VERTEX
  8
0
 10
287.500000
 20
416.779396
 42
0.000008
  0
VERTEX
  8
0
 10
285.009131
 20
415.495331
 42
0.000008
  0
VERTEX
  8
0
 10
282.486517
 20
414.194801
 42
0.000008
  0
VERTEX
  8
0
 10
280.263436
 20
413.048610
 42
0.000028
  0
VERTEX
  8
0
 10
278.858357
 20
412.324045
 42
-0.171523
  0
VERTEX
  8
0
 10
276.287883
 20
411.971178
 42
-0.061415
  0
VERTEX
  8
0
 10
272.732622
 20
413.173050
 42
-0.022404
  0
VERTEX
  8
0
 10
266.679092
 20
416.428972
 42
-0.002099
  0
VERTEX
  8
0
 10
252.192246
 20
425.161536
 42
0.004618
  0
VERTEX
  8
0
 10
249.724163
 20
426.632376
 42
0.006831
  0
VERTEX
  8
0
 10
247.530605
 20
427.872451
 42
0.003436
  0
VERTEX
  8
0
 10
245.656516
 20
428.881717
 42
0.122388
  0
VERTEX
  8
0
 10
245.180525
 20
429.000000
 42
0.192840
  0
VERTEX
  8
0
 10
244.702248
 20
428.808414
 42
0.000631
  0
VERTEX
  8
0
 10
240.000784
 20
424.310565
 42
0.003334
  0
VERTEX
  8
0
 10
234.697809
 20
419.156102
 42
0.002067
  0
VERTEX
  8
0
 10
228.535915
 20
413.035967
 42
0.000000
  0
VERTEX
  8
0
 10
212.595272
 20
397.071934
 42
0.000000
  0
VERTEX
  8
0
 10
214.369411
 20
393.351527
 42
0.016900
  0
VERTEX
  8
0
 10
215.461073
 20
391.248312
 42
0.003010
  0
VERTEX
  8
0
 10
217.657562
 20
387.399423
 42
0.003251
  0
VERTEX
  8
0
 10
220.289209
 20
382.919267
 42
0.002927
  0
VERTEX
  8
0
 10
223.071775
 20
378.313448
 42
-0.005557
  0
VERTEX
  8
0
 10
225.726257
 20
373.866961
 42
-0.008032
  0
VERTEX
  8
0
 10
227.964834
 20
369.874500
 42
-0.004631
  0
VERTEX
  8
0
 10
229.756690
 20
366.480006
 42
-0.119675
  0
VERTEX
  8
0
 10
230.000000
 20
365.478016
 42
-0.089724
  0
VERTEX
  8
0
 10
229.850581
 20
364.652061
 42
-0.017449
  0
VERTEX
  8
0
 10
229.268508
 20
363.247340
 42
-0.018031
  0
VERTEX
  8
0
 10
228.463110
 20
361.637094
 42
-0.015815
  0
VERTEX
  8
0
 10
227.509815
 20
360.015548
 42
0.031819
  0
VERTEX
  8
0
 10
225.068849
 20
355.541866
 42
0.009213
  0
VERTEX
  8
0
 10
221.878375
 20
348.348081
 42
0.009598
  0
VERTEX
  8
0
 10
218.756413
 20
340.527578
 42
0.014753
  0
VERTEX
  8
0
 10
216.386764
 20
333.634574
 42
-0.019403
  0
VERTEX
  8
0
 10
215.575987
 20
331.345571
 42
-0.025079
  0
VERTEX
  8
0
 10
214.648285
 20
329.319366
 42
-0.024256
  0
VERTEX
  8
0
 10
213.732172
 20
327.748669
 42
-0.158184
  0
VERTEX
  8
0
 10
213.030993
 20
327.181059
 42
-0.024383
  0
VERTEX
  8
0
 10
211.922316
 20
326.816128
 42
-0.000791
  0
VERTEX
  8
0
 10
207.396604
 20
325.575037
 42
-0.001518
  0
VERTEX
  8
0
 10
202.049850
 20
324.135304
 42
-0.001054
  0
VERTEX
  8
0
 10
196.000000
 20
322.539579
 42
0.000000
  0
VERTEX
  8
0
 10
180.500000
 20
318.486188
 42
0.000000
  0
VERTEX
  8
0
 10
180.231917
 20
295.384432
 42
0.000000
  0
VERTEX
  8
0
 10
179.963834
 20
272.282676
 42
0.000000
  0
VERTEX
  8
0
 10
196.231917
 20
268.089890
 42
-0.000609
  0
VERTEX
  8
0
 10
209.771477
 20
264.582723
 42
-0.018860
  0
VERTEX
  8
0
 10
213.097193
 20
263.581606
 42
-0.098384
  0
VERTEX
  8
0
 10
214.499634
 20
262.766946
 42
-0.215342
  0
VERTEX
  8
0
 10
215.000000
 20
261.659029
 42
0.080796
  0
VERTEX
  8
0
 10
215.565795
 20
258.180487
 42
0.008644
  0
VERTEX
  8
0
 10
218.300675
 20
250.443416
 42
0.011403
  0
VERTEX
  8
0
 10
221.642447
 20
242.073343
 42
0.015370
  0
VERTEX
  8
0
 10
225.067516
 20
234.671744
 42
-0.003092
  0
VERTEX
  8
0
 10
226.957793
 20
230.836795
 42
-0.004676
  0
VERTEX
  8
0
 10
228.551083
 20
227.473595
 42
-0.001909
  0
VERTEX
  8
0
 10
229.875347
 20
224.580390
 42
-0.106761
  0
VERTEX
  8
0
 10
230.000000
 20
224.003253
 42
-0.125648
  0
VERTEX
  8
0
 10
229.854605
 20
223.433808
 42
-0.002062
  0
VERTEX
  8
0
 10
228.255840
 20
220.535560
 42
-0.005213
  0
VERTEX
  8
0
 10
226.337977
 20
217.175391
 42
-0.003421
  0
VERTEX
  8
0
 10
224.062435
 20
213.343781
 42
0.001888
  0
VERTEX
  8
0
 10
221.603076
 20
209.231423
 42
0.001775
  0
VERTEX
  8
0
 10
219.123479
 20
205.015407
 42
0.001765
  0
VERTEX
  8
0
 10
216.951557
 20
201.261967
 42
0.006140
  0
VERTEX
  8
0
 10
215.586825
 20
198.815051
 42
0.000000
  0
VERTEX
  8
0
 10
213.048780
 20
194.130102
 42
0.000000
  0
VERTEX
  8
0
 10
229.150431
 20
178.065051
 42
0.002187
  0
VERTEX
  8
0
 10
235.377493
 20
171.906267
 42
0.003521
  0
VERTEX
  8
0
 10
240.743329
 20
166.719109
 42
0.000705
  0
VERTEX
  8
0
 10
245.494142
 20
162.203546
 42
0.191959
  0
VERTEX
  8
0
 10
246.004788
 20
162.000000
 42
0.129629
  0
VERTEX
  8
0
 10
246.548475
 20
162.143365
 42
0.000907
  0
VERTEX
  8
0
 10
250.735233
 20
164.526423
 42
0.003423
  0
VERTEX
  8
0
 10
255.518013
 20
167.303854
 42
0.002175
  0
VERTEX
  8
0
 10
261.051438
 20
170.600589
 42
0.000000
  0
VERTEX
  8
0
 10
275.345381
 20
179.201177
 42
0.000000
  0
VERTEX
  8
0
 10
282.977778
 20
175.134466
 42
0.017327
  0
VERTEX
  8
0
 10
286.739954
 20
173.294292
 42
0.007445
  0
VERTEX
  8
0
 10
291.876977
 20
171.089795
 42
0.007356
  0
VERTEX
  8
0
 10
297.423111
 20
168.901747
 42
0.009638
  0
VERTEX
  8
0
 10
302.555088
 20
167.076073
 42
-0.007284
  0
VERTEX
  8
0
 10
307.186938
 20
165.452841
 42
-0.010627
  0
VERTEX
  8
0
 10
311.214220
 20
163.877365
 42
-0.006406
  0
VERTEX
  8
0
 10
314.521850
 20
162.451689
 42
-0.156196
  0
VERTEX
  8
0
 10
315.259280
 20
161.792195
 42
-0.062262
  0
VERTEX
  8
0
 10
315.681625
 20
160.812108
 42
-0.001823
  0
VERTEX
  8
0
 10
316.923946
 20
156.473332
 42
-0.003634
  0
VERTEX
  8
0
 10
318.333012
 20
151.341175
 42
-0.002494
  0
VERTEX
  8
0
 10
319.860006
 20
145.500000
 42
0.000000
  0
VERTEX
  8
0
 10
323.701453
 20
130.500000
 42
0.000000
  0
VERTEX
  8
0
 10
347.120786
 20
130.232444
 42
0.000000
  0
VERTEX
  8
0
 10
370.540119
 20
129.964888
 42
0.000000
  0
VERTEX
  8
0
 10
374.418454
 20
145.494256
 42
-0.004325
  0
VERTEX
  8
0
 10
375.984409
 20
151.541569
 42
-0.006253
  0
VERTEX
  8
0
 10
377.481125
 20
156.855629
 42
-0.003441
  0
VERTEX
  8
0
 10
378.828410
 20
161.306585
 42
-0.097077
  0
VERTEX
  8
0
 10
379.398394
 20
162.364073
 42
-0.110872
  0
VERTEX
  8
0
 10
380.264655
 20
163.039234
 42
-0.008563
  0
VERTEX
  8
0
 10
382.967028
 20
164.259299
 42
-0.011388
  0
VERTEX
  8
0
 10
386.280965
 20
165.599030
 42
-0.008440
  0
VERTEX
  8
0
 10
390.000000
 20
166.933572
 42
0.012682
  0
VERTEX
  8
0
 10
394.314520
 20
168.523235
 42
0.007172
  0
VERTEX
  8
0
 10
399.463175
 20
170.655993
 42
0.007156
  0
VERTEX
  8
0
 10
404.596349
 20
172.956787
 42
0.011668
  0
VERTEX
  8
0
 10
408.874638
 20
175.071234
 42
0.000000
  0
VERTEX
  8
0
 10
418.249276
 20
179.979847
 42
0.000000
  0
VERTEX
  8
0
 10
432.545520
 20
171.489924
 42
0.003822
  0
VERTEX
  8
0
 10
438.120775
 20
168.236410
 42
0.005756
  0
VERTEX
  8
0
 10
443.034191
 20
165.493915
 42
0.002521
  0
VERTEX
  8
0
 10
447.254162
 20
163.229267
 42
0.122480
  0
VERTEX
  8
0
 10
448.176056
 20
163.000000
 42
0.187093
  0
VERTEX
  8
0
 10
449.052671
 20
163.339916
 42
0.002115
  0
VERTEX
  8
0
 10
453.775265
 20
167.687273
 42
0.006159
  0
VERTEX
  8
0
 10
459.190600
 20
172.840462
 42
0.003934
  0
VERTEX
  8
0
 10
465.363510
 20
178.956674
 42
0.000000
  0
VERTEX
  8
0
 10
481.216672
 20
194.913349
 42
0.000000
  0
VERTEX
  8
0
 10
479.236420
 20
198.206674
 42
0.000109
  0
VERTEX
  8
0
 10
478.065035
 20
200.153827
 42
0.000016
  0
VERTEX
  8
0
 10
475.724396
 20
204.042387
 42
0.000018
  0
VERTEX
  8
0
 10
472.961174
 20
208.632268
 42
0.000016
  0
VERTEX
  8
0
 10
470.061374
 20
213.448261
 42
0.000000
  0
VERTEX
  8
0
 10
462.866581
 20
225.396523
 42
0.000000
  0
VERTEX
  8
0
 10
468.368971
 20
236.948261
 42
0.017188
  0
VERTEX
  8
0
 10
472.419328
 20
246.263324
 42
0.018630
  0
VERTEX
  8
0
 10
475.703155
 20
255.590172
 42
0.018987
  0
VERTEX
  8
0
 10
478.230075
 20
264.964307
 42
0.019497
  0
VERTEX
  8
0
 10
480.012973
 20
274.420979
 42
0.020666
  0
VERTEX
  8
0
 10
480.861811
 20
282.396577
 42
0.010658
  0
VERTEX
  8
0
 10
481.297211
 20
292.425241
 42
0.005352
  0
VERTEX
  8
0
 10
481.409102
 20
302.265377
 42
0.143552
  0
VERTEX
  8
0
 10
480.682549
 20
304.750000
 42
0.254878
  0
VERTEX
  8
0
 10
478.568412
 20
305.910521
 42
0.000200
  0
VERTEX
  8
0
 10
415.585946
 20
306.067704
 42
0.000353
  0
VERTEX
  8
0
 10
353.553086
 20
306.153853
 42
0.123644
  0
VERTEX
  8
0
 10
349.048279
 20
305.025838
 42
0.101217
  0
VERTEX
  8
0
 10
347.642401
 20
303.858064
 42
0.015512
  0
VERTEX
  8
0
 10
345.444809
 20
300.936359
 42
0.013576
  0
VERTEX
  8
0
 10
343.412907
 20
297.879958
 42
0.140810
  0
VERTEX
  8
0
 10
343.000000
 20
296.442840
 42
0.412031
  0
VERTEX
  8
0
 10
343.180788
 20
296.260698
 42
0.000052
  0
VERTEX
  8
0
 10
360.940289
 20
296.130084
 42
0.001133
  0
VERTEX
  8
0
 10
380.654714
 20
296.031822
 42
0.000679
  0
VERTEX
  8
0
 10
404.073324
 20
296.000000
 42
-0.000509
  0
VERTEX
  8
0
 10
442.095413
 20
295.961285
 42
-0.006692
  0
VERTEX
  8
0
 10
456.170774
 20
295.744216
 42
-0.009660
  0
VERTEX
  8
0
 10
463.946832
 20
295.369713
 42
-0.450644
  0
VERTEX
  8
0
 10
464.809719
 20
294.250000
 42
-0.340987
  0
VERTEX
  8
0
 10
463.537034
 20
293.126211
 42
-0.008497
  0
VERTEX
  8
0
 10
455.300569
 20
292.721427
 42
-0.006470
  0
VERTEX
  8
0
 10
440.706965
 20
292.441614
 42
-0.000522
  0
VERTEX
  8
0
 10
402.313293
 20
292.242458
 42
0.000000
  0
VERTEX
  8
0
 10
340.153797
 20
291.984916
 42
0.000000
  0
VERTEX
  8
0
 10
337.962831
 20
288.439859
 42
0.014809
  0
VERTEX
  8
0
 10
337.157777
 20
287.046622
 42
0.022981
  0
VERTEX
  8
0
 10
336.555973
 20
285.795650
 42
0.019219
  0
VERTEX
  8
0
 10
336.166607
 20
284.773632
 42
0.285110
  0
VERTEX
  8
0
 10
336.250204
 20
284.416463
 42
0.196856
  0
VERTEX
  8
0
 10
336.718562
 20
284.220287
 42
0.000096
  0
VERTEX
  8
0
 10
353.332183
 20
284.091941
 42
0.001295
  0
VERTEX
  8
0
 10
371.840049
 20
284.000461
 42
0.000787
  0
VERTEX
  8
0
 10
393.729912
 20
283.983418
 42
-0.000826
  0
VERTEX
  8
0
 10
424.212606
 20
283.957308
 42
-0.005011
  0
VERTEX
  8
0
 10
439.999305
 20
283.759497
 42
-0.003440
  0
VERTEX
  8
0
 10
450.261209
 20
283.457388
 42
-0.213603
  0
VERTEX
  8
0
 10
451.856965
 20
282.672347
 42
-0.050217
  0
VERTEX
  8
0
 10
452.238969
 20
282.104733
 42
-0.066068
  0
VERTEX
  8
0
 10
452.458694
 20
281.521129
 42
-0.081866
  0
VERTEX
  8
0
 10
452.491773
 20
281.011134
 42
-0.173408
  0
VERTEX
  8
0
 10
452.324657
 20
280.657991
 42
-0.195890
  0
VERTEX
  8
0
 10
451.683975
 20
280.388233
 42
-0.000166
  0
VERTEX
  8
0
 10
434.441375
 20
280.193285
 42
-0.001704
  0
VERTEX
  8
0
 10
415.151896
 20
280.047349
 42
-0.001039
  0
VERTEX
  8
0
 10
392.369384
 20
280.000000
 42
0.000000
  0
VERTEX
  8
0
 10
333.072102
 20
280.000000
 42
0.000000
  0
VERTEX
  8
0
 10
330.536051
 20
276.267865
 42
0.008769
  0
VERTEX
  8
0
 10
329.564654
 20
274.782961
 42
0.011947
  0
VERTEX
  8
0
 10
328.744965
 20
273.408911
 42
0.008890
  0
VERTEX
  8
0
 10
328.113950
 20
272.243356
 42
0.120180
  0
VERTEX
  8
0
 10
328.000000
 20
271.776123
 42
0.408740
  0
VERTEX
  8
0
 10
328.307265
 20
271.463050
 42
0.000178
  0
VERTEX
  8
0
 10
344.596938
 20
271.163786
 42
0.002101
  0
VERTEX
  8
0
 10
362.835205
 20
270.911872
 42
0.001260
  0
VERTEX
  8
0
 10
384.500214
 20
270.758257
 42
-0.001199
  0
VERTEX
  8
0
 10
409.080304
 20
270.586947
 42
-0.003225
  0
VERTEX
  8
0
 10
426.560799
 20
270.310434
 42
-0.000571
  0
VERTEX
  8
0
 10
440.528853
 20
269.983398
 42
-0.406986
  0
VERTEX
  8
0
 10
441.000614
 20
269.500000
 42
-0.406047
  0
VERTEX
  8
0
 10
440.530375
 20
269.016245
 42
-0.000540
  0
VERTEX
  8
0
 10
426.200228
 20
268.628249
 42
-0.003147
  0
VERTEX
  8
0
 10
408.325591
 20
268.276147
 42
-0.001184
  0
VERTEX
  8
0
 10
383.298419
 20
268.000000
 42
0.000000
  0
VERTEX
  8
0
 10
325.596038
 20
267.500000
 42
0.000000
  0
VERTEX
  8
0
 10
322.831241
 20
263.500000
 42
0.013076
  0
VERTEX
  8
0
 10
321.770195
 20
261.875703
 42
0.016027
  0
VERTEX
  8
0
 10
320.868843
 20
260.303078
 42
0.014556
  0
VERTEX
  8
0
 10
320.199418
 20
258.949487
 42
0.101329
  0
VERTEX
  8
0
 10
320.033221
 20
258.233884
 42
0.412425
  0
VERTEX
  8
0
 10
320.714233
 20
257.511765
 42
0.002413
  0
VERTEX
  8
0
 10
330.830691
 20
257.233312
 42
0.004991
  0
VERTEX
  8
0
 10
345.850189
 20
257.042429
 42
0.000913
  0
VERTEX
  8
0
 10
373.633121
 20
257.017430
 42
-0.000614
  0
VERTEX
  8
0
 10
394.222734
 20
257.011224
 42
-0.001014
  0
VERTEX
  8
0
 10
411.614636
 20
256.949380
 42
-0.000059
  0
VERTEX
  8
0
 10
427.272268
 20
256.860127
 42
-0.197401
  0
VERTEX
  8
0
 10
427.617301
 20
256.716033
 42
-0.353831
  0
VERTEX
  8
0
 10
427.740903
 20
255.545785
 42
-0.002925
  0
VERTEX
  8
0
 10
422.337412
 20
247.312463
 42
-0.009842
  0
VERTEX
  8
0
 10
416.999816
 20
239.615389
 42
-0.028623
  0
VERTEX
  8
0
 10
412.915204
 20
234.597598
 42
-0.036902
  0
VERTEX
  8
0
 10
403.573606
 20
225.779841
 42
-0.034037
  0
VERTEX
  8
0
 10
392.791558
 20
218.167736
 42
-0.034032
  0
VERTEX
  8
0
 10
381.074611
 20
212.087774
 42
-0.036861
  0
VERTEX
  8
0
 10
368.945073
 20
207.838968
 42
-0.041254
  0
VERTEX
  8
0
 10
358.803991
 20
205.985433
 42
-0.024193
  0
VERTEX
  8
0
 10
346.472970
 20
205.369093
 42
-0.024194
  0
VERTEX
  8
0
 10
334.141643
 20
205.946804
 42
-0.041299
  0
VERTEX
  8
0
 10
324.000000
 20
207.768665
 42
-0.066828
  0
VERTEX
  8
0
 10
301.634316
 20
217.060508
 42
-0.065722
  0
VERTEX
  8
0
 10
282.370268
 20
231.964153
 42
-0.066048
  0
VERTEX
  8
0
 10
267.711250
 20
251.280353
 42
-0.068705
  0
VERTEX
  8
0
 10
258.834564
 20
273.500000
 42
-0.035658
  0
VERTEX
  8
0
 10
257.184817
 20
283.019750
 42
-0.022049
  0
VERTEX
  8
0
 10
256.546471
 20
294.362688
 42
-0.022143
  0
VERTEX
  8
0
 10
256.905936
 20
305.539372
 42
-0.041011
  0
VERTEX
  8
0
 10
258.337336
 20
314.500000
 42
-0.051152
  0
VERTEX
  8
0
 10
264.946725
 20
333.031325
 42
-0.052448
  0
VERTEX
  8
0
 10
275.137792
 20
349.667939
 42
-0.052973
  0
VERTEX
  8
0
 10
288.459882
 20
363.677340
 42
-0.054287
  0
VERTEX
  8
0
 10
304.325290
 20
374.443755
 42
-0.070871
  0
VERTEX
  8
0
 10
326.820397
 20
382.559675
 42
-0.066231
  0
VERTEX
  8
0
 10
351.225399
 20
384.331589
 42
-0.065819
  0
VERTEX
  8
0
 10
375.384747
 20
379.654229
 42
-0.068393
  0
VERTEX
  8
0
 10
397.158259
 20
368.886604
 42
-0.043610
  0
VERTEX
  8
0
 10
407.093765
 20
360.802716
 42
-0.032677
  0
VERTEX
  8
0
 10
416.560827
 20
350.336156
 42
-0.032710
  0
VERTEX
  8
0
 10
424.571880
 20
338.740544
 42
-0.044057
  0
VERTEX
  8
0
 10
430.131193
 20
327.264676
 42
0.009460
  0
VERTEX
  8
0
 10
431.091653
 20
324.873753
 42
0.014750
  0
VERTEX
  8
0
 10
432.017704
 20
322.856668
 42
0.008880
  0
VERTEX
  8
0
 10
432.853139
 20
321.242722
 42
0.270093
  0
VERTEX
  8
0
 10
433.226947
 20
321.014676
 42
0.239210
  0
VERTEX
  8
0
 10
433.987221
 20
321.381377
 42
0.019312
  0
VERTEX
  8
0
 10
435.304035
 20
323.252783
 42
0.006779
  0
VERTEX
  8
0
 10
437.731349
 20
327.115866
 42
0.000263
  0
VERTEX
  8
0
 10
446.489331
 20
341.500000
 42
-0.000261
  0
VERTEX
  8
0
 10
456.373673
 20
357.734228
 42
-0.000524
  0
VERTEX
  8
0
 10
464.195492
 20
370.535650
 42
-0.000653
  0
VERTEX
  8
0
 10
470.403517
 20
380.642315
 42
-0.001472
  0
VERTEX
  8
0
 10
475.141736
 20
388.283104
 42
0.004410
  0
VERTEX
  8
0
 10
477.003424
 20
391.324990
 42
0.006575
  0
VERTEX
  8
0
 10
478.572885
 20
394.020662
 42
0.003145
  0
VERTEX
  8
0
 10
479.857368
 20
396.328916
 42
0.126039
  0
VERTEX
  8
0
 10
480.000000
 20
396.885751
 42
0.202128
  0
VERTEX
  8
0
 10
479.238800
 20
398.691784
 42
0.000877
  0
VERTEX
  8
0
 10
463.785618
 20
413.714593
 42
0.000732
  0
VERTEX
  8
0
 10
448.175512
 20
428.792547
 42
0.266177
  0
VERTEX
  8
0
 10
446.674077
 20
429.170023
 42
0.056425
  0
VERTEX
  8
0
 10
445.904146
 20
428.856492
 42
0.002766
  0
VERTEX
  8
0
 10
443.494885
 20
427.524697
 42
0.004456
  0
VERTEX
  8
0
 10
440.650087
 20
425.898060
 42
0.003200
  0
VERTEX
  8
0
 10
437.500000
 20
424.032287
 42
-0.000800
  0
VERTEX
  8
0
 10
433.936459
 20
421.898463
 42
-0.000527
  0
VERTEX
  8
0
 10
429.830436
 20
419.454590
 42
-0.000530
  0
VERTEX
  8
0
 10
425.830722
 20
417.085429
 42
-0.001025
  0
VERTEX
  8
0
 10
422.624889
 20
415.199955
 42
0.000000
  0
VERTEX
  8
0
 10
415.749778
 20
411.175382
 42
0.000000
  0
VERTEX
  8
0
 10
409.624889
 20
414.508463
 42
0.019449
  0
VERTEX
  8
0
 10
404.497654
 20
417.045396
 42
0.009383
  0
VERTEX
  8
0
 10
397.752918
 20
419.911471
 42
0.009021
  0
VERTEX
  8
0
 10
390.321023
 20
422.751429
 42
0.009836
  0
VERTEX
  8
0
 10
383.001465
 20
425.236460
 42
0.000000
  0
VERTEX
  8
0
 10
378.502930
 20
426.665690
 42
0.000000
  0
VERTEX
  8
0
 10
374.332825
 20
443.296693
 42
0.002008
  0
VERTEX
  8
0
 10
372.688355
 20
449.745183
 42
0.003032
  0
VERTEX
  8
0
 10
371.199578
 20
455.346709
 42
0.001189
  0
VERTEX
  8
0
 10
369.881750
 20
460.141616
 42
0.070863
  0
VERTEX
  8
0
 10
369.522343
 20
460.963848
 42
0.244277
  0
VERTEX
  8
0
 10
368.718530
 20
461.443552
 42
0.003711
  0
VERTEX
  8
0
 10
363.124409
 20
461.731676
 42
0.007832
  0
VERTEX
  8
0
 10
355.880681
 20
461.937261
 42
0.003178
  0
VERTEX
  8
0
 10
346.008371
 20
462.000000
 42
0.001652
  0
VERTEX
  8
0
 10
332.302223
 20
461.954703
 42
0.016995
  0
VERTEX
  8
0
 10
326.644590
 20
461.724898
 42
0.040853
  0
VERTEX
  8
0
 10
323.660267
 20
461.254788
 42
0.263370
  0
SEQEND
  0
POLYLINE
  8
0
 66
1
 70
1
  0
VERTEX
  8
0
 10
486.165162
 20
441.092300
 42
0.069648
  0
VERTEX
  8
0
 10
480.091369
 20
437.994779
 42
0.058652
  0
VERTEX
  8
0
 10
474.696246
 20
433.187531
 42
0.059076
  0
VERTEX
  8
0
 10
470.600606
 20
427.299663
 42
0.073220
  0
VERTEX
  8
0
 10
468.354048
 20
421.020240
 42
0.096775
  0
VERTEX
  8
0
 10
468.344818
 20
418.944126
 42
0.104481
  0
VERTEX
  8
0
 10
469.126084
 20
417.079176
 42
0.043221
  0
VERTEX
  8
0
 10
471.162823
 20
414.617952
 42
0.004740
  0
VERTEX
  8
0
 10
476.363081
 20
409.436097
 42
-0.005134
  0
VERTEX
  8
0
 10
481.660044
 20
404.149556
 42
-0.045122
  0
VERTEX
  8
0
 10
483.755886
 20
401.589035
 42
-0.092814
  0
VERTEX
  8
0
 10
484.688338
 20
399.447474
 42
-0.056449
  0
VERTEX
  8
0
 10
485.000000
 20
396.695692
 42
-0.022509
  0
VERTEX
  8
0
 10
484.922441
 20
394.973748
 42
-0.026192
  0
VERTEX
  8
0
 10
484.689907
 20
393.351767
 42
-0.026578
  0
VERTEX
  8
0
 10
484.353168
 20
392.021391
 42
-0.121682
  0
VERTEX
  8
0
 10
483.944365
 20
391.344365
 42
0.395947
  0
VERTEX
  8
0
 10
483.915453
 20
390.423413
 42
0.097359
  0
VERTEX
  8
0
 10
485.234966
 20
389.411839
 42
0.047574
  0
VERTEX
  8
0
 10
487.901049
 20
388.393455
 42
0.018729
  0
VERTEX
  8
0
 10
491.729970
 20
387.487469
 42
0.073225
  0
VERTEX
  8
0
 10
495.625502
 20
387.297607
 42
0.030041
  0
VERTEX
  8
0
 10
500.864781
 20
388.129980
 42
0.030140
  0
VERTEX
  8
0
 10
506.102284
 20
389.624043
 42
0.056298
  0
VERTEX
  8
0
 10
510.066723
 20
391.542120
 42
0.086329
  0
VERTEX
  8
0
 10
516.915064
 20
397.736846
 42
0.083869
  0
VERTEX
  8
0
 10
521.352554
 20
405.939531
 42
0.082910
  0
VERTEX
  8
0
 10
522.881408
 20
415.229763
 42
0.081696
  0
VERTEX
  8
0
 10
521.323707
 20
424.563372
 42
0.070323
  0
VERTEX
  8
0
 10
518.683290
 20
429.776732
 42
0.047757
  0
VERTEX
  8
0
 10
514.367089
 20
434.852826
 42
0.047907
  0
VERTEX
  8
0
 10
509.188512
 20
438.997423
 42
0.072761
  0
VERTEX
  8
0
 10
503.966370
 20
441.417347
 42
0.028938
  0
VERTEX
  8
0
 10
499.141700
 20
442.551145
 42
0.047839
  0
VERTEX
  8
0
 10
494.972480
 20
442.874266
 42
0.048338
  0
VERTEX
  8
0
 10
490.848371
 20
442.398481
 42
0.030277
  0
SEQEND
  0
POLYLINE
  8
0
 66
1
 70
1
  0
VERTEX
  8
0
 10
486.576480
 20
283.750000
 42
0.033374
  0
VERTEX
  8
0
 10
486.388377
 20
282.885485
 42
0.001757
  0
VERTEX
  8
0
 10
485.982089
 20
280.083671
 42
0.002764
  0
VERTEX
  8
0
 10
485.528743
 20
276.745057
 42
0.002007
  0
VERTEX
  8
0
 10
485.059606
 20
273.024199
 42
-0.019871
  0
VERTEX
  8
0
 10
483.607013
 20
264.088090
 42
-0.017111
  0
VERTEX
  8
0
 10
481.390142
 20
254.832903
 42
-0.017403
  0
VERTEX
  8
0
 10
478.602789
 20
245.951881
 42
-0.023473
  0
VERTEX
  8
0
 10
475.433626
 20
238.150304
 42
0.005630
  0
VERTEX
  8
0
 10
473.727804
 20
234.346175
 42
0.040752
  0
VERTEX
  8
0
 10
473.080665
 20
232.449515
 42
0.213739
  0
VERTEX
  8
0
 10
473.208646
 20
231.720516
 42
0.361778
  0
VERTEX
  8
0
 10
473.769006
 20
231.558404
 42
-0.035426
  0
VERTEX
  8
0
 10
478.010523
 20
233.067488
 42
-0.015165
  0
VERTEX
  8
0
 10
483.856569
 20
234.502273
 42
-0.015176
  0
VERTEX
  8
0
 10
489.786058
 20
235.581219
 42
-0.034941
  0
VERTEX
  8
0
 10
494.302595
 20
235.942354
 42
-0.034243
  0
VERTEX
  8
0
 10
500.076986
 20
235.604024
 42
-0.022531
  0
VERTEX
  8
0
 10
506.637436
 20
234.464106
 42
-0.022443
  0
VERTEX
  8
0
 10
512.712567
 20
232.835155
 42
-0.059954
  0
VERTEX
  8
0
 10
516.787915
 20
230.982782
 42
-0.035199
  0
VERTEX
  8
0
 10
518.228983
 20
229.961045
 42
-0.063375
  0
VERTEX
  8
0
 10
519.222332
 20
228.909814
 42
-0.076295
  0
VERTEX
  8
0
 10
519.800747
 20
227.793938
 42
-0.081662
  0
VERTEX
  8
0
 10
520.000000
 20
226.582086
 42
-0.164990
  0
VERTEX
  8
0
 10
519.308985
 20
224.544976
 42
-0.194068
  0
VERTEX
  8
0
 10
517.565429
 20
223.515511
 42
-0.096071
  0
VERTEX
  8
0
 10
514.477760
 20
223.643921
 42
-0.025660
  0
VERTEX
  8
0
 10
509.734302
 20
225.030682
 42
0.048167
  0
VERTEX
  8
0
 10
502.881039
 20
226.703963
 42
0.035080
  0
VERTEX
  8
0
 10
495.053173
 20
227.277063
 42
0.035228
  0
VERTEX
  8
0
 10
487.270748
 20
226.751144
 42
0.050507
  0
VERTEX
  8
0
 10
480.558314
 20
225.116814
 42
0.008092
  0
VERTEX
  8
0
 10
478.216564
 20
224.246202
 42
0.010416
  0
VERTEX
  8
0
 10
476.095376
 20
223.366935
 42
0.008425
  0
VERTEX
  8
0
 10
474.357800
 20
222.568703
 42
0.084679
  0
VERTEX
  8
0
 10
473.708977
 20
222.108977
 42
0.186984
  0
VERTEX
  8
0
 10
473.254554
 20
221.079530
 42
0.075561
  0
VERTEX
  8
0
 10
473.417911
 20
219.526992
 42
0.059034
  0
VERTEX
  8
0
 10
474.140725
 20
217.683132
 42
0.040021
  0
VERTEX
  8
0
 10
475.362359
 20
215.783627
 42
0.082540
  0
VERTEX
  8
0
 10
476.302741
 20
214.899532
 42
0.164474
  0
VERTEX
  8
0
 10
477.277724
 20
214.636173
 42
0.071256
  0
VERTEX
  8
0
 10
478.745056
 20
214.940467
 42
0.007219
  0
VERTEX
  8
0
 10
482.085654
 20
216.202419
 42
-0.054550
  0
VERTEX
  8
0
 10
488.089403
 20
217.842282
 42
-0.039625
  0
VERTEX
  8
0
 10
494.999776
 20
218.385412
 42
-0.039532
  0
VERTEX
  8
0
 10
501.931326
 20
217.831131
 42
-0.053280
  0
VERTEX
  8
0
 10
508.000000
 20
216.182392
 42
-0.050683
  0
VERTEX
  8
0
 10
513.768359
 20
213.230343
 42
-0.044360
  0
VERTEX
  8
0
 10
519.109549
 20
209.059658
 42
-0.043836
  0
VERTEX
  8
0
 10
523.691832
 20
203.955390
 42
-0.046654
  0
VERTEX
  8
0
 10
527.206993
 20
198.231101
 42
-0.016334
  0
VERTEX
  8
0
 10
529.054420
 20
194.146983
 42
-0.046479
  0
VERTEX
  8
0
 10
529.974010
 20
191.166211
 42
-0.041027
  0
VERTEX
  8
0
 10
530.386374
 20
187.867000
 42
-0.010584
  0
VERTEX
  8
0
 10
530.500000
 20
182.500000
 42
-0.010584
  0
VERTEX
  8
0
 10
530.386374
 20
177.133000
 42
-0.041027
  0
VERTEX
  8
0
 10
529.974010
 20
173.833789
 42
-0.046479
  0
VERTEX
  8
0
 10
529.054420
 20
170.853017
 42
-0.016334
  0
VERTEX
  8
0
 10
527.206993
 20
166.768899
 42
-0.080454
  0
VERTEX
  8
0
 10
520.399791
 20
157.193949
 42
-0.079700
  0
VERTEX
  8
0
 10
510.898360
 20
150.220503
 42
-0.081282
  0
VERTEX
  8
0
 10
499.867367
 20
146.664202
 42
-0.088822
  0
VERTEX
  8
0
 10
488.627514
 20
146.973528
 42
-0.042587
  0
VERTEX
  8
0
 10
484.637349
 20
148.163437
 42
-0.090619
  0
VERTEX
  8
0
 10
481.910790
 20
149.856489
 42
-0.145651
  0
VERTEX
  8
0
 10
480.707026
 20
151.841620
 42
-0.194053
  0
VERTEX
  8
0
 10
480.972593
 20
153.913119
 42
-0.178026
  0
VERTEX
  8
0
 10
481.925325
 20
154.728034
 42
-0.055185
  0
VERTEX
  8
0
 10
483.784369
 20
155.192779
 42
-0.028338
  0
VERTEX
  8
0
 10
486.925390
 20
155.438440
 42
-0.005348
  0
VERTEX
  8
0
 10
492.680997
 20
155.500000
 42
0.006938
  0
VERTEX
  8
0
 10
498.692154
 20
155.583421
 42
0.029381
  0
VERTEX
  8
0
 10
502.277543
 20
155.894325
 42
0.045832
  0
VERTEX
  8
0
 10
504.947965
 20
156.538890
 42
0.040778
  0
VERTEX
  8
0
 10
507.568214
 20
157.677583
 42
0.051230
  0
VERTEX
  8
0
 10
511.322949
 20
160.212479
 42
0.031249
  0
VERTEX
  8
0
 10
515.209003
 20
163.896221
 42
0.031322
  0
VERTEX
  8
0
 10
518.584514
 20
168.011024
 42
0.053928
  0
VERTEX
  8
0
 10
520.771408
 20
171.860436
 42
0.072928
  0
VERTEX
  8
0
 10
521.959121
 20
176.266713
 42
0.029432
  0
VERTEX
  8
0
 10
522.326359
 20
182.500000
 42
0.029432
  0
VERTEX
  8
0
 10
521.959121
 20
188.733287
 42
0.072928
  0
VERTEX
  8
0
 10
520.771408
 20
193.139564
 42
0.053954
  0
VERTEX
  8
0
 10
518.578929
 20
196.998337
 42
0.031535
  0
VERTEX
  8
0
 10
515.200251
 20
201.112552
 42
0.031483
  0
VERTEX
  8
0
 10
511.314966
 20
204.785072
 42
0.052058
  0
VERTEX
  8
0
 10
507.568214
 20
207.295279
 42
0.082201
  0
VERTEX
  8
0
 10
502.916550
 20
208.848312
 42
0.030720
  0
VERTEX
  8
0
 10
496.043983
 20
209.515494
 42
0.030819
  0
VERTEX
  8
0
 10
489.110760
 20
209.333362
 42
0.077998
  0
VERTEX
  8
0
 10
484.230750
 20
208.120706
 42
0.000000
  0
VERTEX
  8
0
 10
480.961499
 20
206.741412
 42
0.000000
  0
VERTEX
  8
0
 10
483.480750
 20
202.442636
 42
-0.054124
  0
VERTEX
  8
0
 10
485.723434
 20
197.446809
 42
-0.154472
  0
VERTEX
  8
0
 10
485.750867
 20
193.680704
 42
-0.102356
  0
VERTEX
  8
0
 10
483.532305
 20
189.650727
 42
-0.016831
  0
VERTEX
  8
0
 10
477.500000
 20
183.056164
 42
0.008202
  0
VERTEX
  8
0
 10
474.243241
 20
179.616941
 42
0.011949
  0
VERTEX
  8
0
 10
471.496875
 20
176.472045
 42
0.007548
  0
VERTEX
  8
0
 10
469.323227
 20
173.777815
 42
0.167482
  0
VERTEX
  8
0
 10
469.000000
 20
172.839921
 42
-0.145917
  0
VERTEX
  8
0
 10
468.556697
 20
171.353240
 42
-0.058857
  0
VERTEX
  8
0
 10
467.183239
 20
169.713171
 42
-0.058577
  0
VERTEX
  8
0
 10
465.444603
 20
168.421270
 42
-0.131251
  0
VERTEX
  8
0
 10
463.867426
 20
168.000000
 42
0.130835
  0
VERTEX
  8
0
 10
463.095891
 20
167.794596
 42
0.024710
  0
VERTEX
  8
0
 10
461.857641
 20
167.001277
 42
0.024890
  0
VERTEX
  8
0
 10
460.466819
 20
165.901715
 42
0.020572
  0
VERTEX
  8
0
 10
459.097012
 20
164.600091
 42
0.067389
  0
VERTEX
  8
0
 10
456.888837
 20
161.604387
 42
0.195148
  0
VERTEX
  8
0
 10
456.598412
 20
159.093972
 42
0.111215
  0
VERTEX
  8
0
 10
458.164783
 20
156.169978
 42
0.015593
  0
VERTEX
  8
0
 10
462.837770
 20
151.098198
 42
0.099958
  0
VERTEX
  8
0
 10
477.362794
 20
141.249103
 42
0.097074
  0
VERTEX
  8
0
 10
494.725792
 20
137.674036
 42
0.097509
  0
VERTEX
  8
0
 10
512.089442
 20
140.921348
 42
0.101879
  0
VERTEX
  8
0
 10
526.621327
 20
150.490893
 42
0.075163
  0
VERTEX
  8
0
 10
534.804313
 20
161.588780
 42
0.077856
  0
VERTEX
  8
0
 10
539.218091
 20
174.478582
 42
0.076692
  0
VERTEX
  8
0
 10
539.513626
 20
188.269162
 42
0.069869
  0
VERTEX
  8
0
 10
535.700132
 20
201.985969
 42
-0.060906
  0
VERTEX
  8
0
 10
534.850223
 20
204.844326
 42
-0.136973
  0
VERTEX
  8
0
 10
535.085066
 20
207.074875
 42
-0.180340
  0
VERTEX
  8
0
 10
536.352489
 20
208.479783
 42
-0.120568
  0
VERTEX
  8
0
 10
538.478480
 20
209.000000
 42
-0.145014
  0
VERTEX
  8
0
 10
540.626656
 20
208.363587
 42
-0.097050
  0
VERTEX
  8
0
 10
542.480158
 20
206.567985
 42
-0.058482
  0
VERTEX
  8
0
 10
544.209283
 20
203.333533
 42
-0.018366
  0
VERTEX
  8
0
 10
546.029506
 20
198.144665
 42
-0.046168
  0
VERTEX
  8
0
 10
547.463347
 20
191.363794
 42
-0.025931
  0
VERTEX
  8
0
 10
548.004496
 20
182.954715
 42
-0.025958
  0
VERTEX
  8
0
 10
547.673714
 20
174.582611
 42
-0.048613
  0
VERTEX
  8
0
 10
546.404621
 20
167.931501
 42
-0.057097
  0
VERTEX
  8
0
 10
541.517683
 20
156.365141
 42
-0.058858
  0
VERTEX
  8
0
 10
534.181343
 20
146.332979
 42
-0.058323
  0
VERTEX
  8
0
 10
524.642362
 20
138.211794
 42
-0.054288
  0
VERTEX
  8
0
 10
513.260355
 20
132.281786
 42
-0.019973
  0
VERTEX
  8
0
 10
509.195218
 20
130.880758
 42
-0.035672
  0
VERTEX
  8
0
 10
505.746972
 20
130.107336
 42
-0.028273
  0
VERTEX
  8
0
 10
501.721122
 20
129.732668
 42
-0.008257
  0
VERTEX
  8
0
 10
495.500000
 20
129.609759
 42
-0.008667
  0
VERTEX
  8
0
 10
489.550923
 20
129.693609
 42
-0.023995
  0
VERTEX
  8
0
 10
485.378538
 20
130.025629
 42
-0.030081
  0
VERTEX
  8
0
 10
481.826267
 20
130.699719
 42
-0.022324
  0
VERTEX
  8
0
 10
478.000000
 20
131.851198
 42
-0.046350
  0
VERTEX
  8
0
 10
469.534954
 20
135.729288
 42
-0.036979
  0
VERTEX
  8
0
 10
461.222684
 20
141.369176
 42
-0.037994
  0
VERTEX
  8
0
 10
454.145568
 20
147.909852
 42
-0.063792
  0
VERTEX
  8
0
 10
449.440074
 20
154.481416
 42
0.033725
  0
VERTEX
  8
0
 10
448.541722
 20
155.909791
 42
0.048041
  0
VERTEX
  8
0
 10
447.548588
 20
157.031100
 42
0.057546
  0
VERTEX
  8
0
 10
446.556100
 20
157.762319
 42
0.130738
  0
VERTEX
  8
0
 10
445.662641
 20
158.000000
 42
-0.110847
  0
VERTEX
  8
0
 10
444.469511
 20
158.267801
 42
-0.006941
  0
VERTEX
  8
0
 10
441.207576
 20
159.865552
 42
-0.009971
  0
VERTEX
  8
0
 10
437.352916
 20
161.918075
 42
-0.007222
  0
VERTEX
  8
0
 10
433.140045
 20
164.350816
 42
0.000975
  0
VERTEX
  8
0
 10
428.907547
 20
166.865919
 42
0.001240
  0
VERTEX
  8
0
 10
424.991102
 20
169.169792
 42
0.000968
  0
VERTEX
  8
0
 10
421.698336
 20
171.087259
 42
0.010286
  0
VERTEX
  8
0
 10
420.340301
 20
171.837672
 42
0.128716
  0
VERTEX
  8
0
 10
418.746732
 20
172.207805
 42
0.066839
  0
VERTEX
  8
0
 10
416.717175
 20
171.877606
 42
0.032459
  0
VERTEX
  8
0
 10
413.638152
 20
170.719863
 42
0.005575
  0
VERTEX
  8
0
 10
407.975292
 20
168.083591
 42
0.003778
  0
VERTEX
  8
0
 10
402.041378
 20
165.184877
 42
0.042838
  0
VERTEX
  8
0
 10
399.812475
 20
163.825720
 42
0.233690
  0
VERTEX
  8
0
 10
399.339962
 20
162.914661
 42
0.281800
  0
VERTEX
  8
0
 10
399.819249
 20
162.096735
 42
0.080403
  0
VERTEX
  8
0
 10
401.060527
 20
161.670267
 42
0.014318
  0
VERTEX
  8
0
 10
403.498200
 20
161.322166
 42
0.015152
  0
VERTEX
  8
0
 10
406.406810
 20
161.080472
 42
0.013152
  0
VERTEX
  8
0
 10
409.465643
 20
161.000000
 42
-0.007839
  0
VERTEX
  8
0
 10
413.583815
 20
160.935434
 42
-0.044685
  0
VERTEX
  8
0
 10
415.754779
 20
160.672196
 42
-0.097398
  0
VERTEX
  8
0
 10
416.990668
 20
160.143601
 42
-0.160057
  0
VERTEX
  8
0
 10
417.677110
 20
159.250000
 42
0.015887
  0
VERTEX
  8
0
 10
418.086478
 20
158.192616
 42
0.001952
  0
VERTEX
  8
0
 10
419.063065
 20
155.914950
 42
0.002308
  0
VERTEX
  8
0
 10
420.246555
 20
153.218402
 42
0.001905
  0
VERTEX
  8
0
 10
421.532566
 20
150.354086
 42
0.000000
  0
VERTEX
  8
0
 10
424.773682
 20
143.208173
 42
0.000000
  0
VERTEX
  8
0
 10
419.360174
 20
137.861911
 42
0.033525
  0
VERTEX
  8
0
 10
415.529104
 20
133.534389
 42
0.067780
  0
VERTEX
  8
0
 10
413.262833
 20
129.596793
 42
0.087287
  0
VERTEX
  8
0
 10
412.466305
 20
125.909662
 42
0.099365
  0
VERTEX
  8
0
 10
413.039170
 20
122.347456
 42
0.077035
  0
VERTEX
  8
0
 10
413.936142
 20
120.748758
 42
0.009369
  0
VERTEX
  8
0
 10
416.485965
 20
117.620018
 42
0.010935
  0
VERTEX
  8
0
 10
419.687574
 20
114.001961
 42
0.008814
  0
VERTEX
  8
0
 10
423.279128
 20
110.252605
 42
0.026097
  0
VERTEX
  8
0
 10
431.840052
 20
102.481420
 42
0.137547
  0
VERTEX
  8
0
 10
437.598523
 20
99.968201
 42
0.176957
  0
VERTEX
  8
0
 10
443.024085
 20
101.136810
 42
0.049876
  0
VERTEX
  8
0
 10
449.960018
 20
106.543274
 42
0.000000
  0
VERTEX
  8
0
 10
455.664330
 20
111.984265
 42
0.000000
  0
VERTEX
  8
0
 10
462.582165
 20
109.055843
 42
0.002336
  0
VERTEX
  8
0
 10
465.359128
 20
107.895581
 42
0.002807
  0
VERTEX
  8
0
 10
467.981948
 20
106.831274
 42
0.002402
  0
VERTEX
  8
0
 10
470.200275
 20
105.957913
 42
0.018744
  0
VERTEX
  8
0
 10
471.250000
 20
105.595095
 42
-0.159512
  0
VERTEX
  8
0
 10
472.138233
 20
104.972108
 42
-0.104465
  0
VERTEX
  8
0
 10
472.669221
 20
103.828269
 42
-0.048038
  0
VERTEX
  8
0
 10
472.934448
 20
101.806423
 42
-0.008608
  0
VERTEX
  8
0
 10
473.000000
 20
97.999266
 42
0.028058
  0
VERTEX
  8
0
 10
473.310582
 20
92.469019
 42
0.055814
  0
VERTEX
  8
0
 10
474.282654
 20
88.196635
 42
0.071639
  0
VERTEX
  8
0
 10
475.943488
 20
84.992887
 42
0.092629
  0
VERTEX
  8
0
 10
478.328385
 20
82.704404
 42
0.132280
  0
VERTEX
  8
0
 10
483.070364
 20
81.148697
 42
0.013494
  0
VERTEX
  8
0
 10
495.000000
 20
80.826669
 42
0.013494
  0
VERTEX
  8
0
 10
506.929636
 20
81.148697
 42
0.132280
  0
VERTEX
  8
0
 10
511.671615
 20
82.704404
 42
0.092629
  0
VERTEX
  8
0
 10
514.056512
 20
84.992887
 42
0.071639
  0
VERTEX
  8
0
 10
515.717346
 20
88.196635
 42
0.055814
  0
VERTEX
  8
0
 10
516.689418
 20
92.469019
 42
0.028058
  0
VERTEX
  8
0
 10
517.000000
 20
97.999266
 42
-0.008608
  0
VERTEX
  8
0
 10
517.065552
 20
101.806423
 42
-0.048038
  0
VERTEX
  8
0
 10
517.330779
 20
103.828269
 42
-0.104465
  0
VERTEX
  8
0
 10
517.861767
 20
104.972108
 42
-0.159512
  0
VERTEX
  8
0
 10
518.750000
 20
105.595095
 42
0.018744
  0
VERTEX
  8
0
 10
519.799725
 20
105.957913
 42
0.002402
  0
VERTEX
  8
0
 10
522.018052
 20
106.831274
 42
0.002807
  0
VERTEX
  8
0
 10
524.640872
 20
107.895581
 42
0.002336
  0
VERTEX
  8
0
 10
527.417835
 20
109.055843
 42
0.000000
  0
VERTEX
  8
0
 10
534.335670
 20
111.984265
 42
0.000000
  0
VERTEX
  8
0
 10
540.039982
 20
106.543274
 42
0.049876
  0
VERTEX
  8
0
 10
546.975915
 20
101.136810
 42
0.176957
  0
VERTEX
  8
0
 10
552.401477
 20
99.968201
 42
0.137547
  0
VERTEX
  8
0
 10
558.159948
 20
102.481420
 42
0.026097
  0
VERTEX
  8
0
 10
566.720872
 20
110.252605
 42
0.008814
  0
VERTEX
  8
0
 10
570.312426
 20
114.001961
 42
0.010935
  0
VERTEX
  8
0
 10
573.514035
 20
117.620018
 42
0.009369
  0
VERTEX
  8
0
 10
576.063858
 20
120.748758
 42
0.077035
  0
VERTEX
  8
0
 10
576.960830
 20
122.347456
 42
0.099365
  0
VERTEX
  8
0
 10
577.533695
 20
125.909662
 42
0.087287
  0
VERTEX
  8
0
 10
576.737167
 20
129.596793
 42
0.067780
  0
VERTEX
  8
0
 10
574.470896
 20
133.534389
 42
0.033525
  0
VERTEX
  8
0
 10
570.639826
 20
137.861911
 42
0.000000
  0
VERTEX
  8
0
 10
565.226318
 20
143.208173
 42
0.000000
  0
VERTEX
  8
0
 10
568.467434
 20
150.354086
 42
0.001905
  0
VERTEX
  8
0
 10
569.753445
 20
153.218402
 42
0.002308
  0
VERTEX
  8
0
 10
570.936935
 20
155.914950
 42
0.001952
  0
VERTEX
  8
0
 10
571.913522
 20
158.192616
 42
0.015887
  0
VERTEX
  8
0
 10
572.322890
 20
159.250000
 42
-0.159884
  0
VERTEX
  8
0
 10
573.008687
 20
160.143383
 42
-0.097467
  0
VERTEX
  8
0
 10
574.242866
 20
160.672031
 42
-0.044758
  0
VERTEX
  8
0
 10
576.410071
 20
160.935370
 42
-0.007865
  0
VERTEX
  8
0
 10
580.518275
 20
161.000000
 42
0.048664
  0
VERTEX
  8
0
 10
589.416778
 20
161.868136
 42
0.182552
  0
VERTEX
  8
0
 10
594.103696
 20
164.778157
 42
0.139699
  0
VERTEX
  8
0
 10
596.412386
 20
170.618737
 42
0.024713
  0
VERTEX
  8
0
 10
597.000000
 20
182.500000
 42
0.024713
  0
VERTEX
  8
0
 10
596.412197
 20
194.385385
 42
0.139853
  0
VERTEX
  8
0
 10
594.102072
 20
200.224452
 42
0.182550
  0
VERTEX
  8
0
 10
589.411156
 20
203.133067
 42
0.048516
  0
VERTEX
  8
0
 10
580.497640
 20
204.000000
 42
-0.006034
  0
VERTEX
  8
0
 10
575.630918
 20
204.058738
 42
-0.072523
  0
VERTEX
  8
0
 10
573.786385
 20
204.373332
 42
-0.166567
  0
VERTEX
  8
0
 10
572.744357
 20
205.155382
 42
-0.065453
  0
VERTEX
  8
0
 10
571.926584
 20
206.780757
 42
0.014518
  0
VERTEX
  8
0
 10
571.370346
 20
208.238759
 42
0.004001
  0
VERTEX
  8
0
 10
570.411104
 20
210.498131
 42
0.004038
  0
VERTEX
  8
0
 10
569.282713
 20
213.041446
 42
0.004211
  0
VERTEX
  8
0
 10
568.128757
 20
215.530757
 42
0.000000
  0
VERTEX
  8
0
 10
565.300307
 20
221.500000
 42
0.000000
  0
VERTEX
  8
0
 10
571.012425
 20
227.639354
 42
0.049904
  0
VERTEX
  8
0
 10
576.323760
 20
234.631311
 42
0.178105
  0
VERTEX
  8
0
 10
577.407848
 20
240.051629
 42
0.133937
  0
VERTEX
  8
0
 10
574.810507
 20
245.845952
 42
0.023910
  0
VERTEX
  8
0
 10
566.777253
 20
254.723677
 42
0.025887
  0
VERTEX
  8
0
 10
558.172893
 20
262.512936
 42
0.137159
  0
VERTEX
  8
0
 10
552.403879
 20
265.029519
 42
0.177057
  0
VERTEX
  8
0
 10
546.976808
 20
263.862795
 42
0.049925
  0
VERTEX
  8
0
 10
540.039982
 20
258.456726
 42
0.000000
  0
VERTEX
  8
0
 10
534.335670
 20
253.015735
 42
0.000000
  0
VERTEX
  8
0
 10
527.417835
 20
255.944157
 42
0.002336
  0
VERTEX
  8
0
 10
524.640872
 20
257.104419
 42
0.002807
  0
VERTEX
  8
0
 10
522.018052
 20
258.168726
 42
0.002402
  0
VERTEX
  8
0
 10
519.799725
 20
259.042087
 42
0.018744
  0
VERTEX
  8
0
 10
518.750000
 20
259.404905
 42
-0.162085
  0
VERTEX
  8
0
 10
517.858663
 20
260.036765
 42
-0.103425
  0
VERTEX
  8
0
 10
517.328145
 20
261.203880
 42
-0.046911
  0
VERTEX
  8
0
 10
517.063933
 20
263.276967
 42
-0.008200
  0
VERTEX
  8
0
 10
516.998446
 20
267.218615
 42
0.056597
  0
VERTEX
  8
0
 10
515.993853
 20
276.048387
 42
0.157331
  0
VERTEX
  8
0
 10
512.830274
 20
281.344487
 42
0.139766
  0
VERTEX
  8
0
 10
506.884273
 20
284.161915
 42
0.041215
  0
VERTEX
  8
0
 10
496.734217
 20
285.000000
 42
0.007030
  0
VERTEX
  8
0
 10
492.137252
 20
284.935359
 42
0.023585
  0
VERTEX
  8
0
 10
489.134765
 20
284.708897
 42
0.031410
  0
VERTEX
  8
0
 10
487.191049
 20
284.344661
 42
0.266500
  0
SEQEND
  0
POLYLINE
  8
0
 66
1
 70
1
  0
VERTEX
  8
0
 10
533.622606
 20
218.367522
 42
-0.099403
  0
VERTEX
  8
0
 10
533.715524
 20
216.423031
 42
-0.108748
  0
VERTEX
  8
0
 10
533.038293
 20
214.661583
 42
-0.117370
  0
VERTEX
  8
0
 10
531.737438
 20
213.441350
 42
-0.130676
  0
VERTEX
  8
0
 10
530.077555
 20
213.000000
 42
-0.107286
  0
VERTEX
  8
0
 10
528.479406
 20
213.346912
 42
-0.106252
  0
VERTEX
  8
0
 10
527.162509
 20
214.325801
 42
-0.099029
  0
VERTEX
  8
0
 10
526.299314
 20
215.824857
 42
-0.081440
  0
VERTEX
  8
0
 10
526.000000
 20
217.650310
 42
-0.186610
  0
VERTEX
  8
0
 10
526.975326
 20
220.172578
 42
-0.186889
  0
VERTEX
  8
0
 10
529.393131
 20
221.380517
 42
-0.180495
  0
VERTEX
  8
0
 10
532.059411
 20
220.661713
 42
-0.177948
  0
SEQEND
  0
POLYLINE
  8
0
 66
1
 70
1
  0
VERTEX
  8
0
 10
475.428571
 20
162.428571
 42
-0.051081
  0
VERTEX
  8
0
 10
476.595445
 20
160.995376
 42
-0.169655
  0
VERTEX
  8
0
 10
476.886122
 20
159.833481
 42
-0.142211
  0
VERTEX
  8
0
 10
476.407839
 20
158.613023
 42
-0.032355
  0
VERTEX
  8
0
 10
474.926698
 20
156.926698
 42
-0.025358
  0
VERTEX
  8
0
 10
473.673278
 20
155.794354
 42
-0.134987
  0
VERTEX
  8
0
 10
472.836585
 20
155.425082
 42
-0.150361
  0
VERTEX
  8
0
 10
471.976775
 20
155.556087
 42
-0.033926
  0
VERTEX
  8
0
 10
470.676698
 20
156.296178
 42
-0.078200
  0
VERTEX
  8
0
 10
469.001590
 20
157.830082
 42
-0.126575
  0
VERTEX
  8
0
 10
468.215690
 20
159.582964
 42
-0.150793
  0
VERTEX
  8
0
 10
468.436910
 20
161.279520
 42
-0.128305
  0
VERTEX
  8
0
 10
469.582389
 20
162.683903
 42
-0.052480
  0
VERTEX
  8
0
 10
471.244831
 20
163.650175
 42
-0.116851
  0
VERTEX
  8
0
 10
472.673755
 20
163.923502
 42
-0.123604
  0
VERTEX
  8
0
 10
474.021082
 20
163.522019
 42
-0.062539
  0
SEQEND
  0
POLYLINE
  8
0
 66
1
 70
1
  0
VERTEX
  8
0
 10
153.917758
 20
275.128607
 42
0.011416
  0
VERTEX
  8
0
 10
151.996447
 20
274.112155
 42
0.002787
  0
VERTEX
  8
0
 10
148.878284
 20
272.347397
 42
0.002854
  0
VERTEX
  8
0
 10
145.325933
 20
270.283648
 42
0.002843
  0
VERTEX
  8
0
 10
141.792482
 20
268.176667
 42
0.040316
  0
VERTEX
  8
0
 10
134.454418
 20
262.893910
 42
0.144844
  0
VERTEX
  8
0
 10
131.332206
 20
258.113350
 42
0.157175
  0
VERTEX
  8
0
 10
131.446644
 20
252.646901
 42
0.050047
  0
VERTEX
  8
0
 10
134.903402
 20
245.163830
 42
-0.012979
  0
VERTEX
  8
0
 10
137.196968
 20
241.032479
 42
-0.100836
  0
VERTEX
  8
0
 10
137.803010
 20
238.923705
 42
-0.160021
  0
VERTEX
  8
0
 10
137.382191
 20
237.192809
 42
-0.047123
  0
VERTEX
  8
0
 10
135.707358
 20
234.989782
 42
0.016347
  0
VERTEX
  8
0
 10
134.606597
 20
233.713024
 42
0.006126
  0
VERTEX
  8
0
 10
133.144981
 20
231.855063
 42
0.006061
  0
VERTEX
  8
0
 10
131.601157
 20
229.791006
 42
0.007318
  0
VERTEX
  8
0
 10
130.203824
 20
227.814688
 42
0.000000
  0
VERTEX
  8
0
 10
126.992932
 20
223.129376
 42
0.000000
  0
VERTEX
  8
0
 10
119.764532
 20
225.132468
 42
0.059051
  0
VERTEX
  8
0
 10
111.057188
 20
226.469538
 42
0.169954
  0
VERTEX
  8
0
 10
105.305964
 20
224.676038
 42
0.136863
  0
VERTEX
  8
0
 10
101.166055
 20
219.339391
 42
0.033505
  0
VERTEX
  8
0
 10
97.626187
 20
208.684527
 42
0.009422
  0
VERTEX
  8
0
 10
95.717409
 20
200.709639
 42
0.046018
  0
VERTEX
  8
0
 10
95.143546
 20
196.109778
 42
0.078499
  0
VERTEX
  8
0
 10
95.565239
 20
192.741099
 42
0.068197
  0
VERTEX
  8
0
 10
97.008843
 20
189.485691
 42
0.059511
  0
VERTEX
  8
0
 10
98.784747
 20
187.255382
 42
0.072718
  0
VERTEX
  8
0
 10
100.930484
 20
185.676786
 42
0.044422
  0
VERTEX
  8
0
 10
104.199418
 20
184.293494
 42
0.009500
  0
VERTEX
  8
0
 10
110.107437
 20
182.514192
 42
0.000000
  0
VERTEX
  8
0
 10
115.714875
 20
180.940971
 42
0.000000
  0
VERTEX
  8
0
 10
116.362080
 20
174.220486
 42
0.004405
  0
VERTEX
  8
0
 10
116.653006
 20
171.455121
 42
0.004444
  0
VERTEX
  8
0
 10
116.991833
 20
168.703424
 42
0.004338
  0
VERTEX
  8
0
 10
117.329040
 20
166.311957
 42
0.017911
  0
VERTEX
  8
0
 10
117.597080
 20
164.876278
 42
-0.080457
  0
VERTEX
  8
0
 10
117.689814
 20
163.327990
 42
-0.150122
  0
VERTEX
  8
0
 10
117.206492
 20
162.180878
 42
-0.077544
  0
VERTEX
  8
0
 10
115.898056
 20
161.035063
 42
-0.011139
  0
VERTEX
  8
0
 10
112.842438
 20
159.194376
 42
0.045962
  0
VERTEX
  8
0
 10
104.832725
 20
153.575216
 42
0.176108
  0
VERTEX
  8
0
 10
101.861378
 20
148.367984
 42
0.145458
  0
VERTEX
  8
0
 10
102.643001
 20
141.830478
 42
0.028298
  0
VERTEX
  8
0
 10
108.021932
 20
131.094581
 42
0.028493
  0
VERTEX
  8
0
 10
114.378713
 20
121.349929
 42
0.136186
  0
VERTEX
  8
0
 10
119.554619
 20
117.290376
 42
0.174027
  0
VERTEX
  8
0
 10
125.356935
 20
117.001201
 42
0.053826
  0
VERTEX
  8
0
 10
133.528275
 20
120.478688
 42
0.000000
  0
VERTEX
  8
0
 10
140.106383
 20
124.157375
 42
0.000000
  0
VERTEX
  8
0
 10
145.521088
 20
119.828688
 42
0.001855
  0
VERTEX
  8
0
 10
147.748595
 20
118.061454
 42
0.001920
  0
VERTEX
  8
0
 10
149.963984
 20
116.330927
 42
0.001850
  0
VERTEX
  8
0
 10
151.893625
 20
114.846900
 42
0.008272
  0
VERTEX
  8
0
 10
153.042213
 20
114.000000
 42
0.000000
  0
VERTEX
  8
0
 10
155.148634
 20
112.500000
 42
0.000000
  0
VERTEX
  8
0
 10
153.207379
 20
105.029438
 42
0.050693
  0
VERTEX
  8
0
 10
151.896856
 20
96.527034
 42
0.174167
  0
VERTEX
  8
0
 10
153.486445
 20
91.262548
 42
0.139422
  0
VERTEX
  8
0
 10
158.359386
 20
87.514690
 42
0.028572
  0
VERTEX
  8
0
 10
168.766678
 20
84.049217
 42
0.006929
  0
VERTEX
  8
0
 10
173.329983
 20
82.881822
 42
0.007926
  0
VERTEX
  8
0
 10
177.724457
 20
81.895707
 42
0.007256
  0
VERTEX
  8
0
 10
181.472030
 20
81.173496
 42
0.043996
  0
VERTEX
  8
0
 10
183.439952
 20
81.000000
 42
0.102522
  0
VERTEX
  8
0
 10
187.218743
 20
81.783052
 42
0.101158
  0
VERTEX
  8
0
 10
190.395837
 20
84.004965
 42
0.078765
  0
VERTEX
  8
0
 10
193.013202
 20
87.817091
 42
0.038430
  0
VERTEX
  8
0
 10
195.139150
 20
93.336879
 42
-0.003203
  0
VERTEX
  8
0
 10
195.990255
 20
96.115574
 42
-0.004782
  0
VERTEX
  8
0
 10
196.773037
 20
98.532662
 42
-0.002136
  0
VERTEX
  8
0
 10
197.467999
 20
100.581419
 42
-0.097190
  0
VERTEX
  8
0
 10
197.690679
 20
100.965800
 42
-0.171055
  0
VERTEX
  8
0
 10
198.056899
 20
101.172152
 42
-0.004403
  0
VERTEX
  8
0
 10
199.946917
 20
101.487806
 42
-0.008857
  0
VERTEX
  8
0
 10
202.201708
 20
101.803173
 42
-0.005874
  0
VERTEX
  8
0
 10
204.799133
 20
102.088741
 42
0.005485
  0
VERTEX
  8
0
 10
207.547902
 20
102.388787
 42
0.005628
  0
VERTEX
  8
0
 10
210.265995
 20
102.746777
 42
0.005465
  0
VERTEX
  8
0
 10
212.616665
 20
103.109596
 42
0.023533
  0
VERTEX
  8
0
 10
214.000000
 20
103.406072
 42
-0.088189
  0
VERTEX
  8
0
 10
215.479547
 20
103.528053
 42
-0.160503
  0
VERTEX
  8
0
 10
216.579457
 20
103.047439
 42
-0.077087
  0
VERTEX
  8
0
 10
217.680009
 20
101.704924
 42
-0.010217
  0
VERTEX
  8
0
 10
219.486058
 20
98.494065
 42
0.050133
  0
VERTEX
  8
0
 10
224.725736
 20
90.704308
 42
0.173891
  0
VERTEX
  8
0
 10
229.872462
 20
87.659991
 42
0.145819
  0
VERTEX
  8
0
 10
236.377800
 20
88.311294
 42
0.032019
  0
VERTEX
  8
0
 10
246.589332
 20
93.286889
 42
0.011111
  0
VERTEX
  8
0
 10
254.877443
 20
98.250900
 42
0.061528
  0
VERTEX
  8
0
 10
258.894440
 20
101.531004
 42
0.111566
  0
VERTEX
  8
0
 10
260.817030
 20
104.731639
 42
0.082217
  0
VERTEX
  8
0
 10
261.456023
 20
108.830564
 42
0.037440
  0
VERTEX
  8
0
 10
261.239252
 20
111.397020
 42
0.042861
  0
VERTEX
  8
0
 10
260.642751
 20
113.785060
 42
0.036044
  0
VERTEX
  8
0
 10
259.551200
 20
116.348894
 42
0.017016
  0
VERTEX
  8
0
 10
257.798891
 20
119.491986
 42
0.000000
  0
VERTEX
  8
0
 10
254.185736
 20
125.483972
 42
0.000000
  0
VERTEX
  8
0
 10
256.140441
 20
127.991986
 42
0.002349
  0
VERTEX
  8
0
 10
259.228652
 20
131.992991
 42
0.003457
  0
VERTEX
  8
0
 10
261.900867
 20
135.539430
 42
0.002890
  0
VERTEX
  8
0
 10
264.038782
 20
138.452997
 42
0.028011
  0
VERTEX
  8
0
 10
264.867145
 20
139.741808
 42
-0.138635
  0
VERTEX
  8
0
 10
265.399750
 20
140.268735
 42
-0.113938
  0
VERTEX
  8
0
 10
266.171830
 20
140.488768
 42
-0.066157
  0
VERTEX
  8
0
 10
267.311861
 20
140.395774
 42
-0.018874
  0
VERTEX
  8
0
 10
269.035167
 20
139.953433
 42
0.026272
  0
VERTEX
  8
0
 10
277.022205
 20
138.028737
 42
0.071613
  0
VERTEX
  8
0
 10
282.817446
 20
137.791257
 42
0.106412
  0
VERTEX
  8
0
 10
287.037855
 20
139.162054
 42
0.118240
  0
VERTEX
  8
0
 10
290.134133
 20
142.113568
 42
0.064917
  0
VERTEX
  8
0
 10
291.438213
 20
144.853041
 42
0.006411
  0
VERTEX
  8
0
 10
293.610762
 20
151.831385
 42
0.006356
  0
VERTEX
  8
0
 10
295.605500
 20
158.866679
 42
0.065988
  0
VERTEX
  8
0
 10
296.000000
 20
161.842850
 42
0.172099
  0
VERTEX
  8
0
 10
295.810393
 20
162.377400
 42
0.052072
  0
VERTEX
  8
0
 10
295.192187
 20
162.995146
 42
0.045335
  0
VERTEX
  8
0
 10
294.302551
 20
163.591283
 42
0.036032
  0
VERTEX
  8
0
 10
293.250000
 20
164.071113
 42
-0.012412
  0
VERTEX
  8
0
 10
291.720516
 20
164.682925
 42
-0.002525
  0
VERTEX
  8
0
 10
289.044289
 20
165.847336
 42
-0.002660
  0
VERTEX
  8
0
 10
285.946154
 20
167.233703
 42
-0.002492
  0
VERTEX
  8
0
 10
282.794388
 20
168.683227
 42
0.000000
  0
VERTEX
  8
0
 10
275.088776
 20
172.273729
 42
0.000000
  0
VERTEX
  8
0
 10
262.435160
 20
164.636864
 42
-0.006828
  0
VERTEX
  8
0
 10
256.550946
 20
161.194285
 42
-0.016473
  0
VERTEX
  8
0
 10
252.084931
 20
158.853550
 42
-0.020279
  0
VERTEX
  8
0
 10
248.711673
 20
157.390381
 42
-0.092440
  0
VERTEX
  8
0
 10
246.618176
 20
157.000000
 42
0.047643
  0
VERTEX
  8
0
 10
244.920461
 20
156.837865
 42
0.102483
  0
VERTEX
  8
0
 10
243.712869
 20
156.334859
 42
0.089413
  0
VERTEX
  8
0
 10
242.704314
 20
155.342541
 42
0.030300
  0
VERTEX
  8
0
 10
241.616104
 20
153.585733
 42
-0.073544
  0
VERTEX
  8
0
 10
236.203469
 20
146.328472
 42
-0.040972
  0
VERTEX
  8
0
 10
227.759303
 20
139.197979
 42
-0.040299
  0
VERTEX
  8
0
 10
217.978633
 20
133.351142
 42
-0.057622
  0
VERTEX
  8
0
 10
208.467906
 20
129.953377
 42
-0.066040
  0
VERTEX
  8
0
 10
195.212908
 20
128.675404
 42
-0.062290
  0
VERTEX
  8
0
 10
181.804580
 20
130.841871
 42
-0.061902
  0
VERTEX
  8
0
 10
169.267126
 20
136.265089
 42
-0.063676
  0
VERTEX
  8
0
 10
158.570624
 20
144.551008
 42
-0.129531
  0
VERTEX
  8
0
 10
144.967960
 20
167.932691
 42
-0.130059
  0
VERTEX
  8
0
 10
144.681386
 20
194.942985
 42
-0.129194
  0
VERTEX
  8
0
 10
157.811534
 20
218.693272
 42
-0.126977
  0
VERTEX
  8
0
 10
181.000000
 20
233.109022
 42
-0.043516
  0
VERTEX
  8
0
 10
188.633594
 20
234.789030
 42
-0.035446
  0
VERTEX
  8
0
 10
196.992353
 20
235.280983
 42
-0.035600
  0
VERTEX
  8
0
 10
205.292678
 20
234.588409
 42
-0.045216
  0
VERTEX
  8
0
 10
212.750000
 20
232.725588
 42
0.005630
  0
VERTEX
  8
0
 10
215.530508
 20
231.792109
 42
0.009672
  0
VERTEX
  8
0
 10
217.870313
 20
231.085474
 42
0.003944
  0
VERTEX
  8
0
 10
219.824376
 20
230.552940
 42
0.492020
  0
VERTEX
  8
0
 10
220.000000
 20
230.688207
 42
0.097232
  0
VERTEX
  8
0
 10
219.930072
 20
231.044404
 42
0.001105
  0
VERTEX
  8
0
 10
219.002845
 20
233.300647
 42
0.003352
  0
VERTEX
  8
0
 10
217.906470
 20
235.902275
 42
0.002174
  0
VERTEX
  8
0
 10
216.605431
 20
238.896640
 42
-0.008764
  0
VERTEX
  8
0
 10
215.180549
 20
242.297990
 42
-0.006314
  0
VERTEX
  8
0
 10
213.705558
 20
246.140096
 42
-0.006379
  0
VERTEX
  8
0
 10
212.395146
 20
249.830877
 42
-0.013715
  0
VERTEX
  8
0
 10
211.500362
 20
252.713460
 42
0.000000
  0
VERTEX
  8
0
 10
209.789862
 20
258.809638
 42
0.000000
  0
VERTEX
  8
0
 10
203.155057
 20
260.476248
 42
0.025190
  0
VERTEX
  8
0
 10
197.496283
 20
261.598211
 42
0.030050
  0
VERTEX
  8
0
 10
192.077805
 20
262.061420
 42
0.031052
  0
VERTEX
  8
0
 10
186.800647
 20
261.866672
 42
0.030658
  0
VERTEX
  8
0
 10
181.565288
 20
261.020352
 42
-0.020410
  0
VERTEX
  8
0
 10
178.023285
 20
260.373064
 42
-0.194238
  0
VERTEX
  8
0
 10
176.558908
 20
260.737264
 42
-0.104867
  0
VERTEX
  8
0
 10
175.338580
 20
262.088956
 42
-0.004078
  0
VERTEX
  8
0
 10
172.000000
 20
267.957387
 42
0.051212
  0
VERTEX
  8
0
 10
169.531323
 20
271.478864
 42
0.052369
  0
VERTEX
  8
0
 10
166.415168
 20
274.395858
 42
0.057370
  0
VERTEX
  8
0
 10
163.112603
 20
276.344854
 42
0.108888
  0
VERTEX
  8
0
 10
160.102117
 20
276.960154
 42
0.048030
  0
VERTEX
  8
0
 10
158.853268
 20
276.820582
 42
0.020163
  0
VERTEX
  8
0
 10
157.212088
 20
276.405701
 42
0.019728
  0
VERTEX
  8
0
 10
155.480043
 20
275.817499
 42
0.024241
  0
SEQEND
  0
POLYLINE
  8
0
 66
1
 70
1
  0
VERTEX
  8
0
 10
185.866898
 20
225.939464
 42
0.057855
  0
VERTEX
  8
0
 10
176.691639
 20
222.611850
 42
0.054981
  0
VERTEX
  8
0
 10
168.350406
 20
217.225849
 42
0.054494
  0
VERTEX
  8
0
 10
161.318611
 20
210.099395
 42
0.054816
  0
VERTEX
  8
0
 10
156.008497
 20
201.635478
 42
0.012876
  0
VERTEX
  8
0
 10
153.853043
 20
196.873398
 42
0.035401
  0
VERTEX
  8
0
 10
152.663980
 20
193.385044
 42
0.036468
  0
VERTEX
  8
0
 10
151.997880
 20
189.822525
 42
0.014370
  0
VERTEX
  8
0
 10
151.582966
 20
184.847054
 42
0.080084
  0
VERTEX
  8
0
 10
153.197079
 20
169.584760
 42
0.085976
  0
VERTEX
  8
0
 10
159.533288
 20
156.010650
 42
0.086982
  0
VERTEX
  8
0
 10
169.989747
 20
145.478314
 42
0.084436
  0
VERTEX
  8
0
 10
183.509366
 20
138.997322
 42
0.060794
  0
VERTEX
  8
0
 10
195.128250
 20
137.156807
 42
0.065390
  0
VERTEX
  8
0
 10
206.554221
 20
138.244742
 42
0.065868
  0
VERTEX
  8
0
 10
217.241357
 20
142.231695
 42
0.063175
  0
VERTEX
  8
0
 10
226.691725
 20
148.904467
 42
0.025698
  0
VERTEX
  8
0
 10
230.049573
 20
152.309440
 42
0.024418
  0
VERTEX
  8
0
 10
233.101595
 20
156.097382
 42
0.022371
  0
VERTEX
  8
0
 10
235.424292
 20
159.606800
 42
0.135807
  0
VERTEX
  8
0
 10
236.000000
 20
161.687296
 42
0.169340
  0
VERTEX
  8
0
 10
235.529164
 20
163.037643
 42
0.022135
  0
VERTEX
  8
0
 10
233.502877
 20
165.370168
 42
0.021591
  0
VERTEX
  8
0
 10
231.281069
 20
167.516415
 42
0.183242
  0
VERTEX
  8
0
 10
230.005852
 20
168.000000
 42
0.241512
  0
VERTEX
  8
0
 10
229.646032
 20
167.815433
 42
0.015983
  0
VERTEX
  8
0
 10
228.977277
 20
166.818649
 42
0.020276
  0
VERTEX
  8
0
 10
228.236069
 20
165.519365
 42
0.013562
  0
VERTEX
  8
0
 10
227.490251
 20
163.978381
 42
-0.065163
  0
VERTEX
  8
0
 10
225.007561
 20
159.963100
 42
-0.037553
  0
VERTEX
  8
0
 10
221.089514
 20
155.832420
 42
-0.035824
  0
VERTEX
  8
0
 10
216.302394
 20
152.077670
 42
-0.039459
  0
VERTEX
  8
0
 10
211.175146
 20
149.178477
 42
-0.023544
  0
VERTEX
  8
0
 10
207.754967
 20
147.777910
 42
-0.042035
  0
VERTEX
  8
0
 10
204.817807
 20
147.004199
 42
-0.033231
  0
VERTEX
  8
0
 10
201.357639
 20
146.632146
 42
-0.009694
  0
VERTEX
  8
0
 10
196.000000
 20
146.518070
 42
-0.008792
  0
VERTEX
  8
0
 10
190.483770
 20
146.604582
 42
-0.037573
  0
VERTEX
  8
0
 10
187.213244
 20
146.960427
 42
-0.050348
  0
VERTEX
  8
0
 10
184.515738
 20
147.748092
 42
-0.025112
  0
VERTEX
  8
0
 10
181.285906
 20
149.248651
 42
-0.027877
  0
VERTEX
  8
0
 10
178.275737
 20
151.056627
 42
-0.045091
  0
VERTEX
  8
0
 10
175.967208
 20
152.949318
 42
-0.056000
  0
VERTEX
  8
0
 10
174.476625
 20
154.784873
 42
-0.143516
  0
VERTEX
  8
0
 10
174.000000
 20
156.411206
 42
-0.193645
  0
VERTEX
  8
0
 10
174.116191
 20
156.699966
 42
-0.019007
  0
VERTEX
  8
0
 10
174.666763
 20
157.231359
 42
-0.021834
  0
VERTEX
  8
0
 10
175.400370
 20
157.831919
 42
-0.015577
  0
VERTEX
  8
0
 10
176.269833
 20
158.441146
 42
-0.056969
  0
VERTEX
  8
0
 10
177.719829
 20
159.170819
 42
-0.117963
  0
VERTEX
  8
0
 10
178.971321
 20
159.318636
 42
-0.069797
  0
VERTEX
  8
0
 10
180.554791
 20
158.903089
 42
-0.010868
  0
VERTEX
  8
0
 10
183.519833
 20
157.586997
 42
0.028498
  0
VERTEX
  8
0
 10
188.414731
 20
155.617717
 42
0.046925
  0
VERTEX
  8
0
 10
192.753551
 20
154.593857
 42
0.049477
  0
VERTEX
  8
0
 10
197.039878
 20
154.426247
 42
0.036241
  0
VERTEX
  8
0
 10
201.761689
 20
155.054326
 42
0.037050
  0
VERTEX
  8
0
 10
206.410022
 20
156.384730
 42
0.043020
  0
VERTEX
  8
0
 10
210.573025
 20
158.338558
 42
0.044041
  0
VERTEX
  8
0
 10
214.258229
 20
160.929747
 42
0.042384
  0
VERTEX
  8
0
 10
217.484442
 20
164.157061
 42
0.032501
  0
VERTEX
  8
0
 10
219.409337
 20
166.766662
 42
0.023089
  0
VERTEX
  8
0
 10
221.230309
 20
169.914978
 42
0.021524
  0
VERTEX
  8
0
 10
222.626802
 20
172.918868
 42
0.098348
  0
VERTEX
  8
0
 10
223.000000
 20
174.797854
 42
0.180305
  0
VERTEX
  8
0
 10
222.793596
 20
175.351623
 42
0.003665
  0
VERTEX
  8
0
 10
220.796875
 20
177.624163
 42
0.008154
  0
VERTEX
  8
0
 10
218.374368
 20
180.253289
 42
0.005332
  0
VERTEX
  8
0
 10
215.500000
 20
183.208733
 42
-0.021902
  0
VERTEX
  8
0
 10
210.315894
 20
188.905023
 42
-0.098997
  0
VERTEX
  8
0
 10
208.182359
 20
192.836451
 42
-0.145085
  0
VERTEX
  8
0
 10
208.139712
 20
196.480617
 42
-0.067864
  0
VERTEX
  8
0
 10
210.047036
 20
200.845367
 42
0.066810
  0
VERTEX
  8
0
 10
211.254946
 20
203.593837
 42
0.226431
  0
VERTEX
  8
0
 10
210.942206
 20
205.475482
 42
0.144874
  0
VERTEX
  8
0
 10
209.075452
 20
206.963557
 42
0.024150
  0
VERTEX
  8
0
 10
204.698673
 20
208.496844
 42
0.058260
  0
VERTEX
  8
0
 10
197.344997
 20
209.776453
 42
0.070410
  0
VERTEX
  8
0
 10
190.369368
 20
209.184252
 42
0.071053
  0
VERTEX
  8
0
 10
183.882009
 20
206.689308
 42
0.060827
  0
VERTEX
  8
0
 10
177.964667
 20
202.370181
 42
0.033609
  0
VERTEX
  8
0
 10
174.182287
 20
198.322918
 42
0.056098
  0
VERTEX
  8
0
 10
171.660108
 20
194.407888
 42
0.054485
  0
VERTEX
  8
0
 10
170.025422
 20
189.948562
 42
0.029788
  0
VERTEX
  8
0
 10
168.964696
 20
184.215326
 42
-0.037427
  0
VERTEX
  8
0
 10
167.951781
 20
179.171989
 42
-0.146318
  0
VERTEX
  8
0
 10
166.272442
 20
176.514695
 42
-0.264855
  0
VERTEX
  8
0
 10
164.073320
 20
176.071650
 42
-0.117126
  0
VERTEX
  8
0
 10
161.462650
 20
177.680207
 42
-0.084409
  0
VERTEX
  8
0
 10
160.646318
 20
178.831010
 42
-0.080120
  0
VERTEX
  8
0
 10
160.237459
 20
180.207837
 42
-0.048268
  0
VERTEX
  8
0
 10
160.173735
 20
182.179900
 42
-0.011719
  0
VERTEX
  8
0
 10
160.459180
 20
185.430207
 42
-0.117343
  0
VERTEX
  8
0
 10
166.209987
 20
201.450064
 42
-0.117228
  0
VERTEX
  8
0
 10
178.561650
 20
213.169398
 42
-0.118678
  0
VERTEX
  8
0
 10
194.734282
 20
217.986574
 42
-0.122360
  0
VERTEX
  8
0
 10
211.128274
 20
214.829122
 42
0.000000
  0
VERTEX
  8
0
 10
216.756547
 20
212.222104
 42
0.000000
  0
VERTEX
  8
0
 10
218.877795
 20
215.996355
 42
0.000000
  0
VERTEX
  8
0
 10
220.999043
 20
219.770607
 42
0.000000
  0
VERTEX
  8
0
 10
218.605317
 20
221.339037
 42
0.071370
  0
VERTEX
  8
0
 10
212.004460
 20
224.426791
 42
0.038879
  0
VERTEX
  8
0
 10
203.250669
 20
226.359738
 42
0.038242
  0
VERTEX
  8
0
 10
194.007529
 20
226.944302
 42
0.054817
  0
SEQEND
  0
POLYLINE
  8
0
 66
1
 70
1
  0
VERTEX
  8
0
 10
172.394023
 20
167.750000
 42
-0.139294
  0
VERTEX
  8
0
 10
172.887801
 20
166.049575
 42
-0.131106
  0
VERTEX
  8
0
 10
172.431599
 20
164.298904
 42
-0.120523
  0
VERTEX
  8
0
 10
171.115184
 20
162.901410
 42
-0.107124
  0
VERTEX
  8
0
 10
169.244429
 20
162.193102
 42
-0.165639
  0
VERTEX
  8
0
 10
167.276985
 20
162.550685
 42
-0.115907
  0
VERTEX
  8
0
 10
165.597306
 20
164.080899
 42
-0.114738
  0
VERTEX
  8
0
 10
164.763805
 20
166.212968
 42
-0.160248
  0
VERTEX
  8
0
 10
165.114817
 20
168.214538
 42
-0.173893
  0
VERTEX
  8
0
 10
166.495208
 20
169.462502
 42
-0.114102
  0
VERTEX
  8
0
 10
168.631526
 20
169.814918
 42
-0.105767
  0
VERTEX
  8
0
 10
170.839646
 20
169.193136
 42
-0.132300
  0
SEQEND
  0
ENDSEC
  0
EOF
