  0
SECTION
  2
HEADER
  9
$ACADVER
  1
AC1006
  9
$EXTMIN
 10
0.000000
 20
0.000000
 30
0.000000
  9
$EXTMAX
 10
1556.000000
 20
1032.000000
 30
0.000000
  0
ENDSEC
  0
SECTION
  2
ENTITIES
  0
POLYLINE
  8
0
 66
1
 70
1
  0
VERTEX
  8
0
 10
1234.731108
 20
933.000000
 42
0.034162
  0
VERTEX
  8
0
 10
1234.364636
 20
931.980377
 42
0.002307
  0
VERTEX
  8
0
 10
1233.533824
 20
929.003125
 42
0.003304
  0
VERTEX
  8
0
 10
1232.582379
 20
925.439587
 42
0.002470
  0
VERTEX
  8
0
 10
1231.579119
 20
921.500000
 42
-0.015586
  0
VERTEX
  8
0
 10
1226.225553
 20
902.568590
 42
-0.013116
  0
VERTEX
  8
0
 10
1219.413267
 20
882.872605
 42
-0.012389
  0
VERTEX
  8
0
 10
1211.148930
 20
862.419250
 42
-0.010476
  0
VERTEX
  8
0
 10
1201.429114
 20
841.210460
 42
-0.015670
  0
VERTEX
  8
0
 10
1187.473011
 20
814.534782
 42
-0.016281
  0
VERTEX
  8
0
 10
1172.040251
 20
789.130850
 42
-0.016693
  0
VERTEX
  8
0
 10
1155.401499
 20
765.418113
 42
-0.018785
  0
VERTEX
  8
0
 10
1137.830262
 20
743.813316
 42
0.000000
  0
VERTEX
  8
0
 10
1131.961265
 20
737.126632
 42
0.000000
  0
VERTEX
  8
0
 10
1130.952007
 20
726.474898
 42
-0.016772
  0
VERTEX
  8
0
 10
1128.743590
 20
709.317378
 42
-0.014823
  0
VERTEX
  8
0
 10
1125.317784
 20
691.618541
 42
-0.014020
  0
VERTEX
  8
0
 10
1120.632913
 20
673.184945
 42
-0.011582
  0
VERTEX
  8
0
 10
1114.640428
 20
653.818426
 42
0.003778
  0
VERTEX
  8
0
 10
1112.216583
 20
646.397213
 42
0.016222
  0
VERTEX
  8
0
 10
1110.950885
 20
641.923102
 42
0.028083
  0
VERTEX
  8
0
 10
1110.458517
 20
639.322278
 42
0.610748
  0
VERTEX
  8
0
 10
1110.957376
 20
638.977188
 42
0.057347
  0
VERTEX
  8
0
 10
1115.184726
 20
641.906444
 42
0.003838
  0
VERTEX
  8
0
 10
1126.192747
 20
651.722278
 42
0.006103
  0
VERTEX
  8
0
 10
1137.746133
 20
662.444280
 42
0.009076
  0
VERTEX
  8
0
 10
1147.570614
 20
672.133182
 42
0.021144
  0
VERTEX
  8
0
 10
1167.267071
 20
694.057922
 42
0.023876
  0
VERTEX
  8
0
 10
1184.210739
 20
716.725652
 42
0.024261
  0
VERTEX
  8
0
 10
1198.684375
 20
740.565860
 42
0.023341
  0
VERTEX
  8
0
 10
1210.984478
 20
766.000000
 42
0.020892
  0
VERTEX
  8
0
 10
1220.329219
 20
790.676919
 42
0.021141
  0
VERTEX
  8
0
 10
1227.540661
 20
815.951084
 42
0.020704
  0
VERTEX
  8
0
 10
1232.713756
 20
842.244195
 42
0.018311
  0
VERTEX
  8
0
 10
1235.951989
 20
869.975081
 42
0.017326
  0
VERTEX
  8
0
 10
1236.731138
 20
887.284689
 42
0.007426
  0
VERTEX
  8
0
 10
1236.626572
 20
910.432114
 42
0.003872
  0
VERTEX
  8
0
 10
1236.021261
 20
932.752893
 42
0.797721
  0
SEQEND
  0
POLYLINE
  8
0
 66
1
 70
1
  0
VERTEX
  8
0
 10
1248.807869
 20
755.188442
 42
-0.034893
  0
VERTEX
  8
0
 10
1224.811035
 20
713.817978
 42
-0.028665
  0
VERTEX
  8
0
 10
1193.787722
 20
673.235902
 42
-0.027671
  0
VERTEX
  8
0
 10
1157.054457
 20
634.998042
 42
-0.026843
  0
VERTEX
  8
0
 10
1115.964760
 20
600.636376
 42
-0.003463
  0
VERTEX
  8
0
 10
1110.111747
 20
596.316079
 42
-0.002726
  0
VERTEX
  8
0
 10
1103.714167
 20
591.715060
 42
-0.002756
  0
VERTEX
  8
0
 10
1097.721966
 20
587.504487
 42
-0.006802
  0
VERTEX
  8
0
 10
1093.267547
 20
584.500000
 42
0.000000
  0
VERTEX
  8
0
 10
1084.105574
 20
578.500000
 42
0.000000
  0
VERTEX
  8
0
 10
1082.939688
 20
571.500000
 42
-0.022478
  0
VERTEX
  8
0
 10
1079.371922
 20
554.760195
 42
-0.016322
  0
VERTEX
  8
0
 10
1073.968003
 20
536.489999
 42
-0.013833
  0
VERTEX
  8
0
 10
1066.428837
 20
515.699876
 42
-0.008091
  0
VERTEX
  8
0
 10
1056.313464
 20
491.211996
 42
0.696445
  0
VERTEX
  8
0
 10
1056.821639
 20
490.727028
 42
0.019668
  0
VERTEX
  8
0
 10
1060.584469
 20
492.753297
 42
0.010103
  0
VERTEX
  8
0
 10
1067.382037
 20
496.953761
 42
0.001608
  0
VERTEX
  8
0
 10
1080.500000
 20
505.490689
 42
0.009762
  0
VERTEX
  8
0
 10
1100.653238
 20
519.268344
 42
0.013414
  0
VERTEX
  8
0
 10
1118.179452
 20
532.482011
 42
0.013787
  0
VERTEX
  8
0
 10
1134.592871
 20
546.318523
 42
0.011303
  0
VERTEX
  8
0
 10
1151.368810
 20
561.965533
 42
0.011825
  0
VERTEX
  8
0
 10
1166.327674
 20
577.270870
 42
0.014456
  0
VERTEX
  8
0
 10
1179.544314
 20
592.297735
 42
0.014754
  0
VERTEX
  8
0
 10
1191.643894
 20
607.792441
 42
0.013326
  0
VERTEX
  8
0
 10
1203.242237
 20
624.500000
 42
0.019708
  0
VERTEX
  8
0
 10
1217.687172
 20
648.556344
 42
0.020670
  0
VERTEX
  8
0
 10
1229.948179
 20
673.302773
 42
0.020629
  0
VERTEX
  8
0
 10
1240.144966
 20
699.024147
 42
0.019459
  0
VERTEX
  8
0
 10
1248.408679
 20
726.000000
 42
0.012368
  0
VERTEX
  8
0
 10
1251.260762
 20
737.985703
 42
0.005727
  0
VERTEX
  8
0
 10
1254.401304
 20
753.686112
 42
0.001008
  0
VERTEX
  8
0
 10
1257.492527
 20
770.300462
 42
0.520761
  0
VERTEX
  8
0
 10
1256.863544
 20
770.938442
 42
0.236493
  0
VERTEX
  8
0
 10
1256.650723
 20
770.782556
 42
0.000342
  0
VERTEX
  8
0
 10
1254.347228
 20
766.286486
 42
0.002626
  0
VERTEX
  8
0
 10
1251.783235
 20
761.207897
 42
0.001604
  0
SEQEND
  0
POLYLINE
  8
0
 66
1
 70
1
  0
VERTEX
  8
0
 10
1090.000000
 20
696.920364
 42
-0.027734
  0
VERTEX
  8
0
 10
1069.800213
 20
680.900953
 42
-0.016885
  0
VERTEX
  8
0
 10
1044.332979
 20
664.169440
 42
-0.016501
  0
VERTEX
  8
0
 10
1016.745575
 20
648.574686
 42
-0.020291
  0
VERTEX
  8
0
 10
990.000000
 20
635.953062
 42
-0.023748
  0
VERTEX
  8
0
 10
951.466296
 20
621.761955
 42
-0.021586
  0
VERTEX
  8
0
 10
910.521188
 20
610.772675
 42
-0.018611
  0
VERTEX
  8
0
 10
863.440756
 20
602.116521
 42
-0.010600
  0
VERTEX
  8
0
 10
806.000000
 20
594.991444
 42
0.000320
  0
VERTEX
  8
0
 10
802.032834
 20
594.581969
 42
0.000297
  0
VERTEX
  8
0
 10
797.968750
 20
594.157424
 42
0.000296
  0
VERTEX
  8
0
 10
794.355586
 20
593.775651
 42
0.001005
  0
VERTEX
  8
0
 10
792.000000
 20
593.520558
 42
-0.003391
  0
VERTEX
  8
0
 10
787.550545
 20
593.060189
 42
-0.000580
  0
VERTEX
  8
0
 10
779.083604
 20
592.252057
 42
-0.000652
  0
VERTEX
  8
0
 10
769.436972
 20
591.355313
 42
-0.000697
  0
VERTEX
  8
0
 10
760.000000
 20
590.503744
 42
-0.001969
  0
VERTEX
  8
0
 10
754.075987
 20
590.001003
 42
-0.000172
  0
VERTEX
  8
0
 10
739.040540
 20
588.789830
 42
-0.000250
  0
VERTEX
  8
0
 10
723.053564
 20
587.515583
 42
-0.000408
  0
VERTEX
  8
0
 10
709.500000
 20
586.453238
 42
0.000152
  0
VERTEX
  8
0
 10
706.383089
 20
586.210539
 42
0.000100
  0
VERTEX
  8
0
 10
702.793750
 20
585.929236
 42
0.000100
  0
VERTEX
  8
0
 10
699.299194
 20
585.653955
 42
0.000193
  0
VERTEX
  8
0
 10
696.500000
 20
585.431797
 42
-0.000980
  0
VERTEX
  8
0
 10
692.621466
 20
585.130120
 42
-0.000082
  0
VERTEX
  8
0
 10
682.568750
 20
584.369684
 42
-0.000109
  0
VERTEX
  8
0
 10
670.576438
 20
583.467128
 42
-0.000084
  0
VERTEX
  8
0
 10
657.500000
 20
582.488061
 42
0.000439
  0
VERTEX
  8
0
 10
644.531292
 20
581.507807
 42
0.000603
  0
VERTEX
  8
0
 10
632.871875
 20
580.602082
 42
0.000383
  0
VERTEX
  8
0
 10
623.070284
 20
579.821223
 42
0.007233
  0
VERTEX
  8
0
 10
620.000000
 20
579.529497
 42
-0.004473
  0
VERTEX
  8
0
 10
617.728291
 20
579.300988
 42
-0.001583
  0
VERTEX
  8
0
 10
614.471875
 20
579.013218
 42
-0.001571
  0
VERTEX
  8
0
 10
610.892767
 20
578.719671
 42
-0.001847
  0
VERTEX
  8
0
 10
607.500000
 20
578.464741
 42
0.002511
  0
VERTEX
  8
0
 10
604.253864
 20
578.216494
 42
0.002771
  0
VERTEX
  8
0
 10
601.115625
 20
577.943123
 42
0.002576
  0
VERTEX
  8
0
 10
598.438322
 20
577.681026
 42
0.014167
  0
VERTEX
  8
0
 10
597.000000
 20
577.491419
 42
-0.012095
  0
VERTEX
  8
0
 10
595.582950
 20
577.298639
 42
-0.002384
  0
VERTEX
  8
0
 10
593.031250
 20
577.026481
 42
-0.002526
  0
VERTEX
  8
0
 10
590.054705
 20
576.738542
 42
-0.002343
  0
VERTEX
  8
0
 10
587.000000
 20
576.473043
 42
0.009389
  0
VERTEX
  8
0
 10
557.097453
 20
573.448954
 42
0.005695
  0
VERTEX
  8
0
 10
521.841201
 20
568.805322
 42
0.005701
  0
VERTEX
  8
0
 10
487.557571
 20
563.492328
 42
0.011873
  0
VERTEX
  8
0
 10
461.000000
 20
558.415196
 42
0.032520
  0
VERTEX
  8
0
 10
387.911806
 20
537.583686
 42
0.048745
  0
VERTEX
  8
0
 10
327.925126
 20
509.336837
 42
0.054507
  0
VERTEX
  8
0
 10
279.640852
 20
472.904058
 42
0.058272
  0
VERTEX
  8
0
 10
241.582964
 20
427.635002
 42
0.022162
  0
VERTEX
  8
0
 10
229.282736
 20
407.037817
 42
0.021009
  0
VERTEX
  8
0
 10
218.615722
 20
385.068480
 42
0.014163
  0
VERTEX
  8
0
 10
206.819334
 20
355.677357
 42
0.003945
  0
VERTEX
  8
0
 10
190.020370
 20
309.000000
 42
0.009413
  0
VERTEX
  8
0
 10
178.104615
 20
272.891578
 42
0.021362
  0
VERTEX
  8
0
 10
170.792954
 20
245.093846
 42
0.027315
  0
VERTEX
  8
0
 10
167.011192
 20
221.640853
 42
0.033191
  0
VERTEX
  8
0
 10
166.145664
 20
199.402040
 42
0.005399
  0
VERTEX
  8
0
 10
166.415105
 20
192.362131
 42
0.024139
  0
VERTEX
  8
0
 10
166.816275
 20
188.253012
 42
0.041027
  0
VERTEX
  8
0
 10
167.474491
 20
185.411112
 42
0.055150
  0
VERTEX
  8
0
 10
168.550636
 20
183.000000
 42
0.111439
  0
VERTEX
  8
0
 10
171.677220
 20
179.656921
 42
0.241425
  0
VERTEX
  8
0
 10
175.074411
 20
179.236595
 42
0.126461
  0
VERTEX
  8
0
 10
179.102506
 20
182.005798
 42
0.026439
  0
VERTEX
  8
0
 10
184.425544
 20
188.807062
 42
-0.022139
  0
VERTEX
  8
0
 10
189.005357
 20
194.763479
 42
-0.038862
  0
VERTEX
  8
0
 10
193.362648
 20
199.190709
 42
-0.039322
  0
VERTEX
  8
0
 10
198.315960
 20
202.856159
 42
-0.023292
  0
VERTEX
  8
0
 10
204.727451
 20
206.458421
 42
-0.030442
  0
VERTEX
  8
0
 10
213.630665
 20
210.269453
 42
-0.019654
  0
VERTEX
  8
0
 10
224.335248
 20
213.631095
 42
-0.018194
  0
VERTEX
  8
0
 10
236.292061
 20
216.413030
 42
-0.015780
  0
VERTEX
  8
0
 10
249.000000
 20
218.472386
 42
-0.027823
  0
VERTEX
  8
0
 10
264.747062
 20
219.631346
 42
-0.007508
  0
VERTEX
  8
0
 10
289.790315
 20
219.701898
 42
-0.007905
  0
VERTEX
  8
0
 10
315.468448
 20
218.982470
 42
-0.018807
  0
VERTEX
  8
0
 10
334.500000
 20
217.429295
 42
0.027329
  0
VERTEX
  8
0
 10
359.772539
 20
215.799596
 42
0.002522
  0
VERTEX
  8
0
 10
422.524978
 20
215.504143
 42
0.003178
  0
VERTEX
  8
0
 10
484.858673
 20
215.921217
 42
0.016042
  0
VERTEX
  8
0
 10
519.629292
 20
217.491404
 42
-0.004069
  0
VERTEX
  8
0
 10
522.291936
 20
217.675607
 42
-0.000961
  0
VERTEX
  8
0
 10
526.741105
 20
217.938457
 42
-0.000989
  0
VERTEX
  8
0
 10
531.857151
 20
218.220687
 42
-0.000974
  0
VERTEX
  8
0
 10
537.000000
 20
218.484143
 42
0.001491
  0
VERTEX
  8
0
 10
542.078960
 20
218.749590
 42
0.001635
  0
VERTEX
  8
0
 10
547.003125
 20
219.037824
 42
0.001525
  0
VERTEX
  8
0
 10
551.212702
 20
219.310933
 42
0.008207
  0
VERTEX
  8
0
 10
553.500000
 20
219.504098
 42
-0.004698
  0
VERTEX
  8
0
 10
555.623501
 20
219.698449
 42
-0.001293
  0
VERTEX
  8
0
 10
558.968750
 20
219.964243
 42
-0.001306
  0
VERTEX
  8
0
 10
562.760941
 20
220.245722
 42
-0.001364
  0
VERTEX
  8
0
 10
566.500000
 20
220.503188
 42
0.002806
  0
VERTEX
  8
0
 10
578.714451
 20
221.379652
 42
0.000585
  0
VERTEX
  8
0
 10
600.132047
 20
223.062565
 42
0.000376
  0
VERTEX
  8
0
 10
622.005841
 20
224.823635
 42
0.006791
  0
VERTEX
  8
0
 10
629.000000
 20
225.487770
 42
-0.002217
  0
VERTEX
  8
0
 10
631.812448
 20
225.780814
 42
-0.000237
  0
VERTEX
  8
0
 10
638.346875
 20
226.429276
 42
-0.000292
  0
VERTEX
  8
0
 10
646.129313
 20
227.193282
 42
-0.000235
  0
VERTEX
  8
0
 10
654.500000
 20
228.006141
 42
0.001123
  0
VERTEX
  8
0
 10
663.456123
 20
228.891910
 42
0.000926
  0
VERTEX
  8
0
 10
673.003125
 20
229.875632
 42
0.000935
  0
VERTEX
  8
0
 10
681.762140
 20
230.811112
 42
0.002499
  0
VERTEX
  8
0
 10
688.000000
 20
231.520685
 42
-0.000227
  0
VERTEX
  8
0
 10
693.152344
 20
232.130502
 42
-0.000228
  0
VERTEX
  8
0
 10
698.296875
 20
232.734640
 42
-0.000223
  0
VERTEX
  8
0
 10
702.783212
 20
233.257380
 42
-0.000917
  0
VERTEX
  8
0
 10
705.500000
 20
233.567659
 42
0.001402
  0
VERTEX
  8
0
 10
707.597627
 20
233.809286
 42
0.001268
  0
VERTEX
  8
0
 10
709.765625
 20
234.070757
 42
0.001269
  0
VERTEX
  8
0
 10
711.706310
 20
234.314810
 42
0.004050
  0
VERTEX
  8
0
 10
713.000000
 20
234.491498
 42
-0.003083
  0
VERTEX
  8
0
 10
714.293638
 20
234.670727
 42
-0.000965
  0
VERTEX
  8
0
 10
716.234375
 20
234.923611
 42
-0.000964
  0
VERTEX
  8
0
 10
718.402373
 20
235.197604
 42
-0.001066
  0
VERTEX
  8
0
 10
720.500000
 20
235.454052
 42
0.007795
  0
VERTEX
  8
0
 10
757.572259
 20
240.493559
 42
0.006336
  0
VERTEX
  8
0
 10
797.130870
 20
247.014397
 42
0.006452
  0
VERTEX
  8
0
 10
835.383098
 20
254.329342
 42
0.009799
  0
VERTEX
  8
0
 10
868.407027
 20
261.764462
 42
0.000000
  0
VERTEX
  8
0
 10
887.314054
 20
266.412355
 42
0.000000
  0
VERTEX
  8
0
 10
893.191387
 20
274.339113
 42
0.007928
  0
VERTEX
  8
0
 10
898.062098
 20
281.130713
 42
0.003824
  0
VERTEX
  8
0
 10
904.095478
 20
289.975229
 42
0.003778
  0
VERTEX
  8
0
 10
909.888274
 20
298.750716
 42
0.009762
  0
VERTEX
  8
0
 10
913.895137
 20
305.193586
 42
0.000000
  0
VERTEX
  8
0
 10
916.093387
 20
308.887172
 42
0.000000
  0
VERTEX
  8
0
 10
913.296694
 20
308.055786
 42
-0.011581
  0
VERTEX
  8
0
 10
867.726734
 20
295.650076
 42
-0.015296
  0
VERTEX
  8
0
 10
825.658884
 20
286.593789
 42
-0.016395
  0
VERTEX
  8
0
 10
785.701074
 20
280.609342
 42
-0.017776
  0
VERTEX
  8
0
 10
746.500000
 20
277.453598
 42
0.001013
  0
VERTEX
  8
0
 10
741.119532
 20
277.201574
 42
0.000993
  0
VERTEX
  8
0
 10
735.703125
 20
276.926088
 42
0.000976
  0
VERTEX
  8
0
 10
730.951652
 20
276.665661
 42
0.003757
  0
VERTEX
  8
0
 10
728.000000
 20
276.475840
 42
-0.011957
  0
VERTEX
  8
0
 10
717.086281
 20
275.953520
 42
-0.000778
  0
VERTEX
  8
0
 10
685.410893
 20
275.245392
 42
-0.001217
  0
VERTEX
  8
0
 10
653.866913
 20
274.666163
 42
-0.003981
  0
VERTEX
  8
0
 10
633.000000
 20
274.500000
 42
-0.004138
  0
VERTEX
  8
0
 10
612.499864
 20
274.669675
 42
-0.001312
  0
VERTEX
  8
0
 10
581.927437
 20
275.256028
 42
-0.000531
  0
VERTEX
  8
0
 10
550.171102
 20
275.982178
 42
-0.023156
  0
VERTEX
  8
0
 10
543.500000
 20
276.451450
 42
0.013210
  0
VERTEX
  8
0
 10
541.623477
 20
276.621009
 42
0.001421
  0
VERTEX
  8
0
 10
537.268750
 20
276.886330
 42
0.001746
  0
VERTEX
  8
0
 10
532.080452
 20
277.169466
 42
0.001405
  0
VERTEX
  8
0
 10
526.500000
 20
277.438734
 42
-0.001264
  0
VERTEX
  8
0
 10
520.773428
 20
277.713436
 42
-0.001330
  0
VERTEX
  8
0
 10
515.143750
 20
278.012773
 42
-0.001271
  0
VERTEX
  8
0
 10
510.288035
 20
278.296298
 42
-0.005975
  0
VERTEX
  8
0
 10
507.500000
 20
278.499669
 42
0.001146
  0
VERTEX
  8
0
 10
505.091270
 20
278.698775
 42
0.000508
  0
VERTEX
  8
0
 10
501.912500
 20
278.950945
 42
0.000503
  0
VERTEX
  8
0
 10
498.545684
 20
279.211180
 42
0.000679
  0
VERTEX
  8
0
 10
495.500000
 20
279.439346
 42
-0.001925
  0
VERTEX
  8
0
 10
477.783821
 20
280.810936
 42
-0.000723
  0
VERTEX
  8
0
 10
452.975598
 20
282.863822
 42
-0.000253
  0
VERTEX
  8
0
 10
427.236882
 20
285.044298
 42
-0.014466
  0
VERTEX
  8
0
 10
422.500000
 20
285.586415
 42
0.028685
  0
VERTEX
  8
0
 10
419.677192
 20
285.828428
 42
0.001106
  0
VERTEX
  8
0
 10
409.187617
 20
286.100784
 42
0.001973
  0
VERTEX
  8
0
 10
396.766867
 20
286.346753
 42
0.001390
  0
VERTEX
  8
0
 10
382.798271
 20
286.529388
 42
-0.002260
  0
VERTEX
  8
0
 10
367.407095
 20
286.757401
 42
-0.004647
  0
VERTEX
  8
0
 10
355.361276
 20
287.102329
 42
-0.003752
  0
VERTEX
  8
0
 10
346.113391
 20
287.522693
 42
-0.052575
  0
VERTEX
  8
0
 10
342.830126
 20
288.045742
 42
-0.036911
  0
VERTEX
  8
0
 10
337.524105
 20
289.903720
 42
-0.020478
  0
VERTEX
  8
0
 10
331.349741
 20
292.898164
 42
-0.020487
  0
VERTEX
  8
0
 10
325.459176
 20
296.377135
 42
-0.037965
  0
VERTEX
  8
0
 10
321.041305
 20
299.738003
 42
0.000000
  0
VERTEX
  8
0
 10
316.582611
 20
303.698041
 42
0.000000
  0
VERTEX
  8
0
 10
323.041305
 20
305.801203
 42
-0.021463
  0
VERTEX
  8
0
 10
337.023929
 20
309.699400
 42
-0.023988
  0
VERTEX
  8
0
 10
350.781881
 20
312.217148
 42
-0.021382
  0
VERTEX
  8
0
 10
365.993204
 20
313.594110
 42
-0.012096
  0
VERTEX
  8
0
 10
384.500000
 20
314.025897
 42
-0.001950
  0
VERTEX
  8
0
 10
392.415274
 20
313.988189
 42
-0.002548
  0
VERTEX
  8
0
 10
399.653125
 20
313.888593
 42
-0.001882
  0
VERTEX
  8
0
 10
405.716514
 20
313.751419
 42
-0.023679
  0
VERTEX
  8
0
 10
408.000000
 20
313.582744
 42
0.012755
  0
VERTEX
  8
0
 10
410.082172
 20
313.383132
 42
0.001894
  0
VERTEX
  8
0
 10
414.290625
 20
313.103794
 42
0.002132
  0
VERTEX
  8
0
 10
419.266166
 20
312.813761
 42
0.001834
  0
VERTEX
  8
0
 10
424.500000
 20
312.550314
 42
-0.000520
  0
VERTEX
  8
0
 10
430.063320
 20
312.284939
 42
-0.000421
  0
VERTEX
  8
0
 10
436.031250
 20
311.989000
 42
-0.000426
  0
VERTEX
  8
0
 10
441.534417
 20
311.706762
 42
-0.001104
  0
VERTEX
  8
0
 10
445.500000
 20
311.491219
 42
0.000467
  0
VERTEX
  8
0
 10
457.533377
 20
310.821799
 42
0.000943
  0
VERTEX
  8
0
 10
467.016013
 20
310.321101
 42
0.001073
  0
VERTEX
  8
0
 10
475.663254
 20
309.899471
 42
0.000853
  0
VERTEX
  8
0
 10
485.000000
 20
309.480269
 42
-0.001258
  0
VERTEX
  8
0
 10
490.498472
 20
309.228938
 42
-0.001359
  0
VERTEX
  8
0
 10
495.856250
 20
308.955934
 42
-0.001280
  0
VERTEX
  8
0
 10
500.450964
 20
308.697497
 42
-0.006550
  0
VERTEX
  8
0
 10
503.000000
 20
308.514040
 42
0.009168
  0
VERTEX
  8
0
 10
505.768862
 20
308.329328
 42
0.001093
  0
VERTEX
  8
0
 10
511.906250
 20
308.046254
 42
0.001304
  0
VERTEX
  8
0
 10
519.203884
 20
307.744719
 42
0.001070
  0
VERTEX
  8
0
 10
527.000000
 20
307.459666
 42
-0.001211
  0
VERTEX
  8
0
 10
534.796115
 20
307.172411
 42
-0.001476
  0
VERTEX
  8
0
 10
542.093750
 20
306.864246
 42
-0.001237
  0
VERTEX
  8
0
 10
548.230860
 20
306.571720
 42
-0.010369
  0
VERTEX
  8
0
 10
551.000000
 20
306.375225
 42
0.022034
  0
VERTEX
  8
0
 10
563.772534
 20
305.767863
 42
0.000372
  0
VERTEX
  8
0
 10
634.202606
 20
305.576921
 42
0.000594
  0
VERTEX
  8
0
 10
702.194099
 20
305.524072
 42
0.012447
  0
VERTEX
  8
0
 10
722.500000
 20
306.038027
 42
0.002012
  0
VERTEX
  8
0
 10
738.061160
 20
306.882622
 42
0.001490
  0
VERTEX
  8
0
 10
755.260580
 20
307.936982
 42
0.000789
  0
VERTEX
  8
0
 10
771.384191
 20
308.999178
 42
0.017973
  0
VERTEX
  8
0
 10
776.000000
 20
309.477710
 42
-0.008938
  0
VERTEX
  8
0
 10
777.437654
 20
309.653060
 42
-0.001616
  0
VERTEX
  8
0
 10
780.115625
 20
309.922464
 42
-0.001741
  0
VERTEX
  8
0
 10
783.253862
 20
310.216899
 42
-0.001576
  0
VERTEX
  8
0
 10
786.500000
 20
310.499742
 42
0.014572
  0
VERTEX
  8
0
 10
823.361902
 20
314.679264
 42
0.014136
  0
VERTEX
  8
0
 10
860.295183
 20
321.031004
 42
0.014013
  0
VERTEX
  8
0
 10
897.133490
 20
329.524695
 42
0.013709
  0
VERTEX
  8
0
 10
933.710746
 20
340.123748
 42
0.000000
  0
VERTEX
  8
0
 10
942.921493
 20
343.068755
 42
0.000000
  0
VERTEX
  8
0
 10
950.231208
 20
352.784377
 42
0.012121
  0
VERTEX
  8
0
 10
957.557090
 20
363.029272
 42
0.010307
  0
VERTEX
  8
0
 10
964.797585
 20
374.179671
 42
0.009881
  0
VERTEX
  8
0
 10
971.883035
 20
386.120405
 42
0.008926
  0
VERTEX
  8
0
 10
978.743271
 20
398.740044
 42
0.000000
  0
VERTEX
  8
0
 10
986.192975
 20
413.046880
 42
0.000000
  0
VERTEX
  8
0
 10
981.346488
 20
411.125818
 42
0.000165
  0
VERTEX
  8
0
 10
978.822203
 20
410.124273
 42
0.000050
  0
VERTEX
  8
0
 10
974.986156
 20
408.600361
 42
0.000050
  0
VERTEX
  8
0
 10
970.684005
 20
406.890293
 42
0.000054
  0
VERTEX
  8
0
 10
966.500000
 20
405.226179
 42
-0.014350
  0
VERTEX
  8
0
 10
947.813177
 20
398.405797
 42
-0.009375
  0
VERTEX
  8
0
 10
925.906818
 20
391.569007
 42
-0.009232
  0
VERTEX
  8
0
 10
903.186190
 20
385.395704
 42
-0.011706
  0
VERTEX
  8
0
 10
881.977996
 20
380.576765
 42
-0.011006
  0
VERTEX
  8
0
 10
863.002903
 20
377.162970
 42
-0.004309
  0
VERTEX
  8
0
 10
836.684083
 20
373.255907
 42
-0.004360
  0
VERTEX
  8
0
 10
809.773777
 20
369.736705
 42
-0.008797
  0
VERTEX
  8
0
 10
788.500000
 20
367.522154
 42
0.002059
  0
VERTEX
  8
0
 10
785.563322
 20
367.256398
 42
0.001861
  0
VERTEX
  8
0
 10
782.528125
 20
366.957714
 42
0.001863
  0
VERTEX
  8
0
 10
779.811267
 20
366.669907
 42
0.005939
  0
VERTEX
  8
0
 10
778.000000
 20
366.449403
 42
-0.011196
  0
VERTEX
  8
0
 10
772.979890
 20
365.891753
 42
-0.001618
  0
VERTEX
  8
0
 10
762.714816
 20
365.017094
 42
-0.001970
  0
VERTEX
  8
0
 10
751.494979
 20
364.142120
 42
-0.002788
  0
VERTEX
  8
0
 10
741.500000
 20
363.458271
 42
0.001332
  0
VERTEX
  8
0
 10
737.417204
 20
363.190865
 42
0.001417
  0
VERTEX
  8
0
 10
733.418868
 20
362.906905
 42
0.001347
  0
VERTEX
  8
0
 10
729.979116
 20
362.643500
 42
0.006554
  0
VERTEX
  8
0
 10
728.032316
 20
362.463439
 42
-0.023525
  0
VERTEX
  8
0
 10
700.839058
 20
360.876423
 42
-0.002807
  0
VERTEX
  8
0
 10
640.534960
 20
360.536328
 42
-0.002720
  0
VERTEX
  8
0
 10
580.131436
 20
360.863347
 42
-0.025070
  0
VERTEX
  8
0
 10
554.000000
 20
362.458915
 42
0.008243
  0
VERTEX
  8
0
 10
552.472005
 20
362.603940
 42
0.001029
  0
VERTEX
  8
0
 10
549.150000
 20
362.857188
 42
0.001212
  0
VERTEX
  8
0
 10
545.203501
 20
363.140261
 42
0.001004
  0
VERTEX
  8
0
 10
541.000000
 20
363.423047
 42
-0.002883
  0
VERTEX
  8
0
 10
536.324675
 20
363.755227
 42
-0.001889
  0
VERTEX
  8
0
 10
530.940625
 20
364.189440
 42
-0.001900
  0
VERTEX
  8
0
 10
525.698968
 20
364.652168
 42
-0.003648
  0
VERTEX
  8
0
 10
521.500000
 20
365.069846
 42
0.000310
  0
VERTEX
  8
0
 10
517.687695
 20
365.474777
 42
0.000266
  0
VERTEX
  8
0
 10
513.675000
 20
365.896316
 42
0.000268
  0
VERTEX
  8
0
 10
510.030227
 20
366.275270
 42
0.000770
  0
VERTEX
  8
0
 10
507.500000
 20
366.533033
 42
-0.005158
  0
VERTEX
  8
0
 10
504.691092
 20
366.844116
 42
-0.001043
  0
VERTEX
  8
0
 10
499.709375
 20
367.458462
 42
-0.001100
  0
VERTEX
  8
0
 10
493.917992
 20
368.197867
 42
-0.001029
  0
VERTEX
  8
0
 10
488.000000
 20
368.979068
 42
0.004242
  0
VERTEX
  8
0
 10
466.835311
 20
371.634648
 42
0.012246
  0
VERTEX
  8
0
 10
452.117717
 20
372.990195
 42
0.013536
  0
VERTEX
  8
0
 10
438.178891
 20
373.552014
 42
0.006220
  0
VERTEX
  8
0
 10
420.000000
 20
373.566082
 42
0.003415
  0
VERTEX
  8
0
 10
406.882045
 20
373.323405
 42
0.010387
  0
VERTEX
  8
0
 10
397.974399
 20
372.912466
 42
0.014204
  0
VERTEX
  8
0
 10
390.787238
 20
372.225605
 42
0.013735
  0
VERTEX
  8
0
 10
383.569313
 20
371.126216
 42
0.030340
  0
VERTEX
  8
0
 10
363.450798
 20
366.218208
 42
0.032104
  0
VERTEX
  8
0
 10
344.462406
 20
358.981299
 42
0.033151
  0
VERTEX
  8
0
 10
327.141138
 20
349.639951
 42
0.037832
  0
VERTEX
  8
0
 10
312.000000
 20
338.448990
 42
0.000000
  0
VERTEX
  8
0
 10
306.500000
 20
333.701254
 42
0.000000
  0
VERTEX
  8
0
 10
306.170633
 20
340.600627
 42
-0.026045
  0
VERTEX
  8
0
 10
306.195516
 20
346.286771
 42
-0.008861
  0
VERTEX
  8
0
 10
306.807913
 20
354.527507
 42
-0.008219
  0
VERTEX
  8
0
 10
307.686260
 20
362.603284
 42
-0.037973
  0
VERTEX
  8
0
 10
308.622552
 20
367.205970
 42
-0.175249
  0
VERTEX
  8
0
 10
310.326346
 20
369.574620
 42
-0.003991
  0
VERTEX
  8
0
 10
322.042694
 20
377.457967
 42
-0.009766
  0
VERTEX
  8
0
 10
333.924386
 20
384.986187
 42
-0.020466
  0
VERTEX
  8
0
 10
343.500000
 20
390.270986
 42
-0.015880
  0
VERTEX
  8
0
 10
352.357561
 20
394.350624
 42
-0.015711
  0
VERTEX
  8
0
 10
361.487521
 20
397.875456
 42
-0.015701
  0
VERTEX
  8
0
 10
370.826826
 20
400.822099
 42
-0.015808
  0
VERTEX
  8
0
 10
380.311593
 20
403.169458
 42
-0.015617
  0
VERTEX
  8
0
 10
386.527929
 20
404.299155
 42
-0.018788
  0
VERTEX
  8
0
 10
392.431065
 20
404.956903
 42
-0.013501
  0
VERTEX
  8
0
 10
399.741852
 20
405.296314
 42
-0.003944
  0
VERTEX
  8
0
 10
411.000000
 20
405.425841
 42
-0.006287
  0
VERTEX
  8
0
 10
425.529241
 20
405.295694
 42
-0.004159
  0
VERTEX
  8
0
 10
442.212092
 20
404.797556
 42
-0.001067
  0
VERTEX
  8
0
 10
458.888186
 20
404.125117
 42
-0.119649
  0
VERTEX
  8
0
 10
461.000000
 20
403.516482
 42
0.113530
  0
VERTEX
  8
0
 10
461.419258
 20
403.390148
 42
0.000587
  0
VERTEX
  8
0
 10
465.759375
 20
403.105868
 42
0.002580
  0
VERTEX
  8
0
 10
470.713966
 20
402.812851
 42
0.001628
  0
VERTEX
  8
0
 10
476.500000
 20
402.519509
 42
-0.001072
  0
VERTEX
  8
0
 10
482.427454
 20
402.225603
 42
-0.001416
  0
VERTEX
  8
0
 10
487.828125
 20
401.930869
 42
-0.001017
  0
VERTEX
  8
0
 10
492.354270
 20
401.661774
 42
-0.013836
  0
VERTEX
  8
0
 10
494.000000
 20
401.514772
 42
0.014417
  0
VERTEX
  8
0
 10
495.665958
 20
401.367916
 42
0.000957
  0
VERTEX
  8
0
 10
500.465625
 20
401.093179
 42
0.001382
  0
VERTEX
  8
0
 10
506.189358
 20
400.792399
 42
0.001033
  0
VERTEX
  8
0
 10
512.500000
 20
400.491327
 42
-0.001288
  0
VERTEX
  8
0
 10
518.746844
 20
400.190104
 42
-0.001856
  0
VERTEX
  8
0
 10
524.271582
 20
399.888869
 42
-0.000964
  0
VERTEX
  8
0
 10
528.952383
 20
399.607155
 42
-0.029974
  0
VERTEX
  8
0
 10
530.105387
 20
399.465821
 42
0.044372
  0
VERTEX
  8
0
 10
548.717492
 20
397.725851
 42
0.001172
  0
VERTEX
  8
0
 10
631.689989
 20
397.544657
 42
0.001098
  0
VERTEX
  8
0
 10
715.063538
 20
397.741258
 42
0.047978
  0
VERTEX
  8
0
 10
732.500000
 20
399.498449
 42
-0.026777
  0
VERTEX
  8
0
 10
733.785396
 20
399.683234
 42
-0.002462
  0
VERTEX
  8
0
 10
736.996875
 20
399.954648
 42
-0.003173
  0
VERTEX
  8
0
 10
740.832773
 20
400.235330
 42
-0.002482
  0
VERTEX
  8
0
 10
745.000000
 20
400.492904
 42
0.006754
  0
VERTEX
  8
0
 10
753.518494
 20
401.092526
 42
0.002220
  0
VERTEX
  8
0
 10
766.035583
 20
402.199693
 42
0.002266
  0
VERTEX
  8
0
 10
778.712516
 20
403.435737
 42
0.005590
  0
VERTEX
  8
0
 10
788.000000
 20
404.488865
 42
0.000074
  0
VERTEX
  8
0
 10
789.660336
 20
404.696210
 42
0.000035
  0
VERTEX
  8
0
 10
791.793750
 20
404.963105
 42
0.000035
  0
VERTEX
  8
0
 10
794.021596
 20
405.242131
 42
0.000050
  0
VERTEX
  8
0
 10
796.000000
 20
405.490256
 42
0.017045
  0
VERTEX
  8
0
 10
852.179631
 20
414.496118
 42
0.018637
  0
VERTEX
  8
0
 10
905.947800
 20
427.103174
 42
0.019399
  0
VERTEX
  8
0
 10
956.491918
 20
443.091931
 42
0.022707
  0
VERTEX
  8
0
 10
1003.000000
 20
462.240333
 42
0.000000
  0
VERTEX
  8
0
 10
1012.500000
 20
466.666136
 42
0.000000
  0
VERTEX
  8
0
 10
1018.746387
 20
479.276933
 42
0.011513
  0
VERTEX
  8
0
 10
1026.022471
 20
494.858563
 42
0.011197
  0
VERTEX
  8
0
 10
1032.644715
 20
510.902510
 42
0.010808
  0
VERTEX
  8
0
 10
1038.753375
 20
527.770894
 42
0.009177
  0
VERTEX
  8
0
 10
1044.487937
 20
545.829759
 42
0.006939
  0
VERTEX
  8
0
 10
1045.767086
 20
550.359096
 42
0.015393
  0
VERTEX
  8
0
 10
1046.586900
 20
553.851241
 42
0.013711
  0
VERTEX
  8
0
 10
1047.027657
 20
556.382763
 42
0.587164
  0
VERTEX
  8
0
 10
1046.679041
 20
556.649934
 42
0.007251
  0
VERTEX
  8
0
 10
1045.794575
 20
556.252346
 42
0.000093
  0
VERTEX
  8
0
 10
1040.265093
 20
553.668439
 42
0.000271
  0
VERTEX
  8
0
 10
1033.867026
 20
550.672958
 42
0.000178
  0
VERTEX
  8
0
 10
1026.500000
 20
547.215751
 42
-0.013646
  0
VERTEX
  8
0
 10
995.747170
 20
533.782339
 42
-0.016000
  0
VERTEX
  8
0
 10
965.882815
 20
522.794588
 42
-0.014129
  0
VERTEX
  8
0
 10
932.461396
 20
512.737566
 42
-0.007471
  0
VERTEX
  8
0
 10
890.500000
 20
502.063360
 42
-0.007648
  0
VERTEX
  8
0
 10
843.139777
 20
491.529389
 42
-0.009797
  0
VERTEX
  8
0
 10
799.228018
 20
483.358549
 42
-0.010265
  0
VERTEX
  8
0
 10
756.818956
 20
477.215650
 42
-0.010125
  0
VERTEX
  8
0
 10
714.000000
 20
472.786639
 42
-0.016941
  0
VERTEX
  8
0
 10
696.884646
 20
471.948323
 42
-0.002617
  0
VERTEX
  8
0
 10
662.900037
 20
471.614285
 42
-0.002449
  0
VERTEX
  8
0
 10
617.435022
 20
471.628126
 42
-0.001115
  0
VERTEX
  8
0
 10
558.000000
 20
472.069942
 42
0.002098
  0
VERTEX
  8
0
 10
530.017140
 20
472.222931
 42
0.007031
  0
VERTEX
  8
0
 10
511.678985
 20
471.988333
 42
0.009233
  0
VERTEX
  8
0
 10
496.151894
 20
471.284150
 42
0.006263
  0
VERTEX
  8
0
 10
478.500000
 20
469.934477
 42
0.012473
  0
VERTEX
  8
0
 10
449.411941
 20
466.610452
 42
0.015960
  0
VERTEX
  8
0
 10
422.842704
 20
462.032084
 42
0.017142
  0
VERTEX
  8
0
 10
398.346449
 20
456.119401
 42
0.019847
  0
VERTEX
  8
0
 10
375.500000
 20
448.780644
 42
0.014633
  0
VERTEX
  8
0
 10
365.689126
 20
444.864743
 42
0.006994
  0
VERTEX
  8
0
 10
353.309358
 20
439.291432
 42
0.006675
  0
VERTEX
  8
0
 10
341.492614
 20
433.578137
 42
0.023142
  0
VERTEX
  8
0
 10
334.083060
 20
429.433743
 42
-0.033967
  0
VERTEX
  8
0
 10
331.009800
 20
427.801027
 42
-0.628311
  0
VERTEX
  8
0
 10
330.367369
 20
428.343806
 42
-0.083540
  0
VERTEX
  8
0
 10
331.380095
 20
430.615456
 42
-0.003644
  0
VERTEX
  8
0
 10
336.254128
 20
437.842544
 42
-0.026516
  0
VERTEX
  8
0
 10
342.174788
 20
445.572013
 42
-0.013933
  0
VERTEX
  8
0
 10
350.289881
 20
454.557607
 42
-0.013914
  0
VERTEX
  8
0
 10
358.804416
 20
462.990300
 42
-0.029392
  0
VERTEX
  8
0
 10
365.945856
 20
468.932278
 42
-0.032474
  0
VERTEX
  8
0
 10
375.402873
 20
474.997701
 42
-0.023043
  0
VERTEX
  8
0
 10
386.702566
 20
480.585977
 42
-0.021742
  0
VERTEX
  8
0
 10
399.259013
 20
485.452163
 42
-0.020159
  0
VERTEX
  8
0
 10
412.508923
 20
489.347488
 42
-0.019409
  0
VERTEX
  8
0
 10
437.798541
 20
494.653396
 42
-0.009635
  0
VERTEX
  8
0
 10
470.210129
 20
499.509613
 42
-0.009442
  0
VERTEX
  8
0
 10
504.641115
 20
503.332268
 42
-0.012049
  0
VERTEX
  8
0
 10
536.500000
 20
505.488921
 42
0.000898
  0
VERTEX
  8
0
 10
542.299999
 20
505.751779
 42
0.000874
  0
VERTEX
  8
0
 10
548.150000
 20
506.037681
 42
0.000861
  0
VERTEX
  8
0
 10
553.289299
 20
506.306734
 42
0.003268
  0
VERTEX
  8
0
 10
556.500000
 20
506.501422
 42
-0.011473
  0
VERTEX
  8
0
 10
560.608442
 20
506.682944
 42
-0.000585
  0
VERTEX
  8
0
 10
573.956250
 20
506.950461
 42
-0.000934
  0
VERTEX
  8
0
 10
589.825124
 20
507.220285
 42
-0.000677
  0
VERTEX
  8
0
 10
607.500000
 20
507.463872
 42
0.000631
  0
VERTEX
  8
0
 10
659.757648
 20
508.179301
 42
0.003068
  0
VERTEX
  8
0
 10
689.384582
 20
508.804168
 42
0.004684
  0
VERTEX
  8
0
 10
712.790548
 20
509.661038
 42
0.003153
  0
VERTEX
  8
0
 10
739.500000
 20
511.058341
 42
0.019438
  0
VERTEX
  8
0
 10
801.044002
 20
517.074506
 42
0.020788
  0
VERTEX
  8
0
 10
860.556322
 20
527.773991
 42
0.020811
  0
VERTEX
  8
0
 10
918.914036
 20
543.365412
 42
0.019574
  0
VERTEX
  8
0
 10
977.000000
 20
564.032313
 42
0.011718
  0
VERTEX
  8
0
 10
1005.587097
 20
576.267613
 42
0.010621
  0
VERTEX
  8
0
 10
1034.533568
 20
590.217711
 42
0.006253
  0
VERTEX
  8
0
 10
1060.194263
 20
603.669441
 42
0.124492
  0
VERTEX
  8
0
 10
1066.669252
 20
609.617967
 42
0.048663
  0
VERTEX
  8
0
 10
1070.842982
 20
617.580616
 42
0.008024
  0
VERTEX
  8
0
 10
1077.117153
 20
633.781133
 42
0.009400
  0
VERTEX
  8
0
 10
1083.322542
 20
651.626754
 42
0.013940
  0
VERTEX
  8
0
 10
1088.024255
 20
667.500000
 42
0.006289
  0
VERTEX
  8
0
 10
1090.833154
 20
678.615702
 42
0.006301
  0
VERTEX
  8
0
 10
1093.359650
 20
689.791310
 42
0.001316
  0
VERTEX
  8
0
 10
1095.596933
 20
700.439278
 42
0.495811
  0
VERTEX
  8
0
 10
1095.146089
 20
700.957363
 42
0.145816
  0
VERTEX
  8
0
 10
1094.736090
 20
700.805146
 42
0.005031
  0
VERTEX
  8
0
 10
1093.367914
 20
699.753906
 42
0.009037
  0
VERTEX
  8
0
 10
1091.771140
 20
698.453977
 42
0.006148
  0
SEQEND
  0
POLYLINE
  8
0
 66
1
 70
1
  0
VERTEX
  8
0
 10
1196.634363
 20
564.096823
 42
-0.013814
  0
VERTEX
  8
0
 10
1186.370999
 20
553.032037
 42
-0.005822
  0
VERTEX
  8
0
 10
1172.004867
 20
538.715018
 42
-0.005857
  0
VERTEX
  8
0
 10
1156.841232
 20
524.293238
 42
-0.010053
  0
VERTEX
  8
0
 10
1143.825244
 20
512.679891
 42
-0.013068
  0
VERTEX
  8
0
 10
1117.046460
 20
490.924245
 42
-0.012505
  0
VERTEX
  8
0
 10
1088.778185
 20
470.264678
 42
-0.012844
  0
VERTEX
  8
0
 10
1060.405965
 20
451.658661
 42
-0.016449
  0
VERTEX
  8
0
 10
1033.327701
 20
436.088127
 42
0.000000
  0
VERTEX
  8
0
 10
1027.155402
 20
432.804178
 42
0.000000
  0
VERTEX
  8
0
 10
1023.850162
 20
423.152089
 42
-0.023451
  0
VERTEX
  8
0
 10
1019.439564
 20
412.006471
 42
-0.010128
  0
VERTEX
  8
0
 10
1012.579528
 20
397.583517
 42
-0.010181
  0
VERTEX
  8
0
 10
1004.974020
 20
383.136722
 42
-0.018698
  0
VERTEX
  8
0
 10
998.112277
 20
371.750000
 42
0.002041
  0
VERTEX
  8
0
 10
995.436825
 20
367.627333
 42
0.003479
  0
VERTEX
  8
0
 10
993.239289
 20
364.157812
 42
0.000582
  0
VERTEX
  8
0
 10
991.345044
 20
361.112699
 42
0.587972
  0
VERTEX
  8
0
 10
991.407749
 20
361.000000
 42
0.101408
  0
VERTEX
  8
0
 10
991.661460
 20
361.051991
 42
0.000317
  0
VERTEX
  8
0
 10
994.692695
 20
362.351071
 42
0.001788
  0
VERTEX
  8
0
 10
998.118117
 20
363.836192
 42
0.001116
  0
VERTEX
  8
0
 10
1002.121045
 20
365.599391
 42
0.035631
  0
VERTEX
  8
0
 10
1064.059458
 20
398.507087
 42
0.046098
  0
VERTEX
  8
0
 10
1115.198668
 20
437.523274
 42
0.047992
  0
VERTEX
  8
0
 10
1156.733548
 20
483.839623
 42
0.044116
  0
VERTEX
  8
0
 10
1190.016410
 20
538.500000
 42
0.005764
  0
VERTEX
  8
0
 10
1195.600793
 20
550.142575
 42
0.005613
  0
VERTEX
  8
0
 10
1200.966250
 20
562.014054
 42
0.001088
  0
VERTEX
  8
0
 10
1205.948710
 20
573.443837
 42
0.539732
  0
VERTEX
  8
0
 10
1205.583578
 20
574.000000
 42
0.211797
  0
VERTEX
  8
0
 10
1205.409544
 20
573.922818
 42
0.000276
  0
VERTEX
  8
0
 10
1202.847617
 20
571.090942
 42
0.002269
  0
VERTEX
  8
0
 10
1199.984638
 20
567.893728
 42
0.001387
  0
SEQEND
  0
POLYLINE
  8
0
 66
1
 70
1
  0
VERTEX
  8
0
 10
1074.000000
 20
382.401070
 42
-0.022688
  0
VERTEX
  8
0
 10
1053.537547
 20
369.619104
 42
-0.009782
  0
VERTEX
  8
0
 10
1025.207851
 20
354.383719
 42
-0.009678
  0
VERTEX
  8
0
 10
994.474469
 20
339.366793
 42
-0.012941
  0
VERTEX
  8
0
 10
966.000000
 20
327.015725
 42
0.000000
  0
VERTEX
  8
0
 10
955.500000
 20
322.780609
 42
0.000000
  0
VERTEX
  8
0
 10
951.590652
 20
313.757277
 42
-0.013024
  0
VERTEX
  8
0
 10
949.618482
 20
309.511886
 42
-0.006102
  0
VERTEX
  8
0
 10
946.857766
 20
304.118938
 42
-0.006041
  0
VERTEX
  8
0
 10
943.824499
 20
298.532340
 42
-0.008435
  0
VERTEX
  8
0
 10
940.968424
 20
293.616973
 42
0.005713
  0
VERTEX
  8
0
 10
938.447874
 20
289.332914
 42
0.009658
  0
VERTEX
  8
0
 10
936.447117
 20
285.679878
 42
0.003762
  0
VERTEX
  8
0
 10
934.858732
 20
282.585449
 42
0.442202
  0
VERTEX
  8
0
 10
935.003336
 20
282.208145
 42
0.192474
  0
VERTEX
  8
0
 10
937.109444
 20
282.225398
 42
0.002204
  0
VERTEX
  8
0
 10
950.323854
 20
287.702061
 42
0.007105
  0
VERTEX
  8
0
 10
964.221732
 20
293.767565
 42
0.007680
  0
VERTEX
  8
0
 10
977.582675
 20
300.075344
 42
0.021777
  0
VERTEX
  8
0
 10
1004.021642
 20
314.518746
 42
0.025580
  0
VERTEX
  8
0
 10
1027.669364
 20
330.513312
 42
0.026809
  0
VERTEX
  8
0
 10
1048.563291
 20
348.092146
 42
0.029517
  0
VERTEX
  8
0
 10
1066.754399
 20
367.280317
 42
0.006527
  0
VERTEX
  8
0
 10
1072.577073
 20
374.383444
 42
0.009317
  0
VERTEX
  8
0
 10
1077.543032
 20
380.848890
 42
0.004246
  0
VERTEX
  8
0
 10
1081.580311
 20
386.411271
 42
0.635521
  0
VERTEX
  8
0
 10
1081.281544
 20
386.941772
 42
0.117787
  0
VERTEX
  8
0
 10
1080.763007
 20
386.776321
 42
0.003558
  0
VERTEX
  8
0
 10
1078.820204
 20
385.583921
 42
0.006865
  0
VERTEX
  8
0
 10
1076.547323
 20
384.122858
 42
0.004669
  0
SEQEND
  0
ENDSEC
  0
EOF
